<?xml version="1.0" encoding="UTF-8"?>
<svg width="102px" height="86px" viewBox="0 0 102 86" version="1.1" xmlns="http://www.w3.org/2000/svg" xmlns:xlink="http://www.w3.org/1999/xlink">
    <!-- Generator: Sketch 52.2 (67145) - http://www.bohemiancoding.com/sketch -->
    <title>UN-01 2</title>
    <desc>Created with Sketch.</desc>
    <g id="Page-1" stroke="none" stroke-width="1" fill="none" fill-rule="evenodd">
        <g id="Desktop-HD-Copy-2" transform="translate(-46.000000, -36.000000)" fill="#FFFFFE">
            <g id="UN-01-2" transform="translate(46.000000, 36.000000)">
                <g id="UN-01">
                    <path d="M24.0315318,3.51818182 C21.3838306,5.83365378 19.6170469,8.81431305 17.5830185,11.4933832 C15.8911764,13.7221835 13.5701075,15.1032927 11.57355,16.9727228 C12.6517193,14.7446271 12.8503853,12.1909843 14.2191301,10.0354673 C16.5592879,6.34945581 20.4265576,4.91831657 24.0315318,3.51818182 Z M9.55083355,11.5821688 C10.9280623,10.0608346 12.4714353,8.87561739 14.3089187,8.4063221 C10.7407083,10.8514492 10.9344253,15.2216735 9.84211603,18.8752712 C9.44266312,20.2112831 8.85585619,21.4627372 8.54407082,22.8431418 L8.63385935,22.9157205 C9.22773624,21.3542214 10.2458109,19.8540267 11.572843,18.6060959 C14.0826798,16.2462311 17.8552121,14.8186151 19.0966976,11.3665466 C19.0401379,16.1630827 14.9374384,19.8096339 11.191065,22.6303382 C9.51053476,23.8951806 8.08240223,25.5940859 7.2106758,27.3747304 C7.35631703,26.0492883 7.42277469,24.9465148 7.30399931,23.6527819 C6.91939332,19.4629473 6.66982363,14.7657665 9.55083355,11.5821688 Z M2.33310832,25.9006076 C2.33310832,21.6565153 3.99101464,18.1931724 6.47893463,15.0321233 C6.55104825,14.9961863 6.60195198,14.9243122 6.69527549,14.9412238 C3.95707882,19.0930073 6.44924078,24.3334714 6.09786362,29.0419266 L5.73658851,33.8751043 C5.79032023,33.9103367 5.79032023,34.0554941 5.91757956,33.999827 C6.07877472,33.4607716 6.12826446,32.8878931 6.22229497,32.3312215 C6.88121552,28.435225 10.3143896,25.7230365 13.2250933,22.9727969 C13.9137077,22.3217026 14.4177961,21.5529321 14.7430144,20.7256758 C14.5005146,22.6669799 13.9575415,24.6562 13.0836941,26.4199329 C10.8425158,30.9409518 6.51499144,34.5910263 5.73658851,39.7293165 C5.35905249,34.8045345 2.33310832,31.1438903 2.33310832,25.9006076 Z M0.261609161,31.9345049 C0.567738559,30.6076535 0.802461331,29.2342954 1.3814913,28.0166643 C0.284940039,33.6256591 4.02919244,37.6773827 5.30744176,42.5302906 C5.78890624,44.3595557 5.95363637,46.3022691 6.69598249,48.0089256 C6.76526813,48.0455672 6.82465582,47.9743978 6.86778259,47.9187307 C5.02040126,42.7543685 7.72819709,37.9810858 10.3660003,33.9103367 C11.0595637,32.839977 11.3932659,31.5941601 11.7170702,30.3342502 C12.0019897,32.6722709 11.5028503,35.3788223 11.0687546,37.7915356 C10.5102275,40.8976222 9.4454911,43.8085213 8.59850953,46.8053875 C8.04139645,48.6776361 8.18845168,50.7901696 8.47407818,52.7519084 L8.20541959,52.5384002 C6.24138387,48.9242628 2.36633715,46.1014446 1.19625827,42.157532 C0.260902165,39.0056434 -0.38599945,35.3640247 0.261609161,31.9345049 Z M0.0841530895,42.8903655 C0.516834825,48.8368865 6.86848959,52.0127331 9.89655474,56.9008734 C10.5434564,57.9444565 11.2094469,59.0225673 12.148338,59.8653258 C12.0019897,59.2325523 11.4795195,58.6716528 11.191772,58.0501536 C10.220359,55.9531224 9.78060735,53.5263161 10.0231071,51.0304544 C10.3186315,47.994128 11.5883969,45.174833 11.1005694,41.9799608 C13.7115068,47.5960021 12.8694742,54.6164059 14.3782043,60.6890588 C14.7119065,62.0321171 15.5327292,63.2081739 16.0382316,64.4800628 C13.473249,62.5352355 10.1121886,60.8095536 7.29692934,58.5976648 C4.57428659,56.4583547 2.21079796,53.9512186 0.982038391,50.689405 C0.0968790229,48.3387006 -0.132894775,45.5349079 0.0841530895,42.8903655 Z M3.28826032,56.5450264 C6.27885467,63.2941409 13.7935183,63.8226266 18.7898612,67.9624312 C19.7393572,68.7502272 20.6810763,69.4746049 21.7253098,69.9594024 L21.7790416,69.9051446 C20.6259306,68.8657894 19.3780821,67.6263143 18.4851458,66.333286 C15.6295877,62.1977093 16.5797908,56.5450264 14.3782043,52.1607091 C16.3782968,54.5480551 18.254665,57.0058659 19.406362,59.7391939 C21.2601063,64.1383087 21.89004,69.1561042 26.0471782,72.4989523 C21.5478538,71.0191924 16.3570869,71.3137351 12.3052911,68.668488 C8.04634542,65.8886533 4.09918508,61.5001082 3.28826032,56.5450264 Z M10.9740171,69.1356694 C15.768866,74.5755487 23.5889521,72.8252041 29.9900966,74.1837647 C30.8809119,74.3733149 31.7179955,74.6678576 32.6745615,74.5212909 C31.9131265,74.0407212 30.9049498,73.9864634 30.0254464,73.6566883 C25.0587974,71.7914861 24.2846364,66.4939456 21.5669427,62.848099 C25.0382945,65.1480687 27.9143555,68.2971388 31.1608825,71.2566586 C33.4204426,73.3163435 36.2349949,74.1978576 39.1548896,74.7897616 C38.4528423,75.0455487 37.5351611,74.984949 36.7800891,75.1716806 C31.5355905,76.4689368 25.7219599,78.5152334 20.1416381,76.6796264 C16.540906,75.4958185 12.7938256,72.6906165 10.9740171,69.1356694 Z M64.5,84.1298653 C63.9124861,84.7985759 63.1524651,85.4235983 62.4362778,86 C57.807573,81.2323545 52.3735995,75.9489069 47.2089915,75.9489069 C44.0062982,75.9489069 41.7000763,78.3785317 39.0092484,80.0922347 C35.2756009,82.4711249 30.1534127,83.8113646 25.7643797,82.0652479 C23.4030121,81.1717548 21.115879,79.8554731 19.406362,77.7175723 C22.8614529,80.0922347 28.0345448,80.41144 31.9350434,78.7992063 C36.2455999,77.016448 40.6332189,74.6495367 45.5461362,74.6495367 C52.7886063,74.6495367 59.6712153,79.5320398 64.5,84.1298653 Z" id="Fill-4"></path>
                    <path d="M77.2134943,3.51818182 C79.8612136,5.83365378 81.6280095,8.81431305 83.6620519,11.4933832 C85.3539057,13.7221835 87.6749905,15.1032927 89.6715618,16.9727228 C88.594092,14.7446271 88.3954247,12.1909843 87.0266704,10.0354673 C84.6864966,6.34945581 80.8184932,4.91831657 77.2134943,3.51818182 Z M91.6942921,11.5821688 C90.3177609,10.0608346 88.7743773,8.87561739 86.9368813,8.4063221 C90.5044092,10.8514492 90.3106908,15.2216735 91.4030076,18.8752712 C91.8024633,20.2112831 92.3899813,21.4627372 92.7017688,22.8431418 L92.6112726,22.9157205 C92.0180987,21.3542214 90.99931,19.8540267 89.6722688,18.6060959 C87.1631217,16.2462311 83.3905634,14.8186151 82.1490694,11.3665466 C82.2056295,16.1630827 86.3076502,19.8096339 90.0547564,22.6303382 C91.7352982,23.8951806 93.1634406,25.5940859 94.034466,27.3747304 C93.8888237,26.0492883 93.8230726,24.9465148 93.9418488,23.6527819 C94.3264575,19.4629473 94.5753219,14.7657665 91.6942921,11.5821688 Z M98.912774,25.9006076 C98.912774,21.6565153 97.2541493,18.1931724 94.7669192,15.0321233 C94.6948051,14.9961863 94.643194,14.9243122 94.5498698,14.9412238 C97.2880854,19.0930073 94.7959062,24.3334714 95.1479928,29.0419266 L95.5092704,33.8751043 C95.4555383,33.9103367 95.4555383,34.0554941 95.3282781,33.999827 C95.1663749,33.4607716 95.1175918,32.8878931 95.0235606,32.3312215 C94.3639285,28.435225 90.9314379,25.7230365 88.0200071,22.9727969 C87.3313879,22.3217026 86.8272961,21.5529321 86.5027826,20.7256758 C86.744577,22.6669799 87.2882609,24.6562 88.1621143,26.4199329 C90.402601,30.9409518 94.7308621,34.5910263 95.5092704,39.7293165 C95.886809,34.8045345 98.912774,31.1438903 98.912774,25.9006076 Z M100.984287,31.9345049 C100.677449,30.6076535 100.443432,29.2342954 99.8636906,28.0166643 C100.960956,33.6256591 97.2166782,37.6773827 95.9384201,42.5302906 C95.4569523,44.3595557 95.2915141,46.3022691 94.5498698,48.0089256 C94.4805837,48.0455672 94.4204886,47.9743978 94.3780686,47.9187307 C96.2247556,42.7543685 93.5169411,37.9810858 90.8791198,33.9103367 C90.1862586,32.839977 89.8525541,31.5941601 89.5287476,30.3342502 C89.2431191,32.6722709 89.7422619,35.3788223 90.1763606,37.7915356 C90.7348915,40.8976222 91.8003423,43.8085213 92.6466227,46.8053875 C93.2044466,48.6776361 93.0573904,50.7901696 92.7717619,52.7519084 L93.0404223,52.5384002 C95.0044716,48.9242628 98.878838,46.1014446 100.048925,42.157532 C100.984287,39.0056434 101.631194,35.3640247 100.984287,31.9345049 Z M101.161745,42.8903655 C100.72906,48.8368865 94.3773616,52.0127331 91.3485686,56.9008734 C90.7016625,57.9444565 90.0363744,59.0225673 89.0967698,59.8653258 C89.2431191,59.2325523 89.7663,58.6716528 90.0533424,58.0501536 C91.024762,55.9531224 91.4645168,53.5263161 91.2220154,51.0304544 C90.9271959,47.994128 89.6574218,45.174833 90.1445456,41.9799608 C87.5342973,47.5960021 88.3763357,54.6164059 86.8675952,60.6890588 C86.5338906,62.0321171 85.7130623,63.2081739 85.2068494,64.4800628 C87.7718497,62.5352355 91.1336402,60.8095536 93.9489188,58.5976648 C96.6715803,56.4583547 99.0350852,53.9512186 100.263146,50.689405 C101.148312,48.3387006 101.378794,45.5349079 101.161745,42.8903655 Z M97.9576155,56.5450264 C94.9670005,63.2941409 87.4522851,63.8226266 82.4559079,67.9624312 C81.5056983,68.7502272 80.5639728,69.4746049 79.5204391,69.9594024 L79.466707,69.9051446 C80.6198259,68.8657894 81.8669759,67.6263143 82.7599184,66.333286 C85.6162031,62.1977093 84.6652865,56.5450264 86.8675952,52.1607091 C84.8667819,54.5480551 82.9904008,57.0058659 81.8386959,59.7391939 C79.9849388,64.1383087 79.3557078,69.1561042 75.1978339,72.4989523 C79.6978964,71.0191924 84.8879919,71.3137351 88.9398156,68.668488 C93.1987906,65.8886533 97.1459781,61.5001082 97.9576155,56.5450264 Z M90.2718058,69.1356694 C85.4769239,74.5755487 77.656077,72.8252041 71.2555954,74.1837647 C70.364774,74.3733149 69.5276846,74.6678576 68.571112,74.5212909 C69.3318453,74.0407212 70.3407359,73.9864634 71.2195384,73.6566883 C76.1862216,71.7914861 76.9603878,66.4939456 79.6788073,62.848099 C76.2074316,65.1480687 73.3306439,68.2971388 70.0848015,71.2566586 C67.8252258,73.3163435 65.0099471,74.1978576 62.0907393,74.7897616 C62.7920845,75.0455487 63.709772,74.984949 64.4655562,75.1716806 C69.7093839,76.4689368 75.5237615,78.5152334 81.1034147,76.6796264 C84.7048786,75.4958185 88.4519848,72.6906165 90.2718058,69.1356694 Z M36.7454545,84.1298653 C37.3329725,84.7985759 38.0922918,85.4235983 38.8091909,86 C43.4372206,81.2323545 48.8712315,75.9489069 54.0365821,75.9489069 C57.2385903,75.9489069 59.5448281,78.3785317 62.2356746,80.0922347 C65.9700547,82.4711249 71.0922782,83.8113646 75.4813414,82.0652479 C77.8420183,81.1717548 80.1298741,79.8554731 81.8386959,77.7175723 C78.3842882,80.0922347 73.2104537,80.41144 69.3106352,78.7992063 C64.9993421,77.016448 60.6116929,74.6495367 55.6987418,74.6495367 C48.4569289,74.6495367 41.5735655,79.5320398 36.7454545,84.1298653 Z" id="Fill-5"></path>
                    <path d="M82.4304322,51.3625629 L81.6518989,50.9374216 C80.0012114,54.3420716 77.8155462,57.4398315 75.2004911,60.1194889 L70.6510695,55.5710397 C72.8796737,53.274995 74.6767762,50.6678369 76.0008458,47.8509237 L75.2251282,47.4271901 C73.9165448,50.2208754 72.1560461,52.762573 70.0330296,54.9523324 L65.912294,50.8318401 C67.6812398,48.9926111 69.0848521,46.8943557 70.09779,44.6271699 L69.3291116,44.2076595 C68.3365874,46.442467 66.9681709,48.4745581 65.2956619,50.2166521 L60.7413129,45.662572 C62.0083652,44.3209836 62.9861072,42.7766789 63.6513096,41.1056764 L62.8819273,40.686166 C62.2462894,42.3156398 61.306559,43.7944841 60.1289043,45.0494957 L55.9954982,40.9170375 C57.1731529,39.6029003 57.8559533,37.9544218 57.95239,36.1933231 L63.8033559,36.1933231 C63.7533777,37.7742295 63.4295755,39.2861559 62.8819273,40.686166 L63.6513096,41.1063802 C64.2672378,39.5578522 64.6149733,37.902335 64.6642475,36.1933231 L71.1135436,36.1933231 C71.0558223,39.0405031 70.4208884,41.7476116 69.3291116,44.2076595 L70.09779,44.6271699 C71.2705173,42.0010071 71.9188257,39.1474923 71.9758431,36.1926193 L77.8155462,36.1926193 C77.7543054,40.202603 76.8293572,44.0042393 75.2251282,47.4271901 L76.0001419,47.8509237 C77.6958802,44.2435572 78.6173087,40.2884759 78.6778457,36.1926193 L85.1271418,36.1926193 C85.0623813,41.4709882 83.8192623,46.4678066 81.6518989,50.9374216 L82.4304322,51.3625629 C84.7625123,46.5600144 86,41.2570098 86,35.7618469 C86,31.0888117 85.1046164,26.5544401 83.4032468,22.3487787 L82.6042999,22.6922704 C84.2064171,26.6614293 85.0750518,30.9297356 85.1285496,35.3303707 L78.6785496,35.3303707 C78.6264597,31.8194354 77.9366201,28.4147853 76.6744953,25.2410068 L75.8811797,25.5809791 C77.0989578,28.6491762 77.7648641,31.9383905 77.8162501,35.3303707 L71.976547,35.3303707 C71.9265688,32.7450328 71.4225636,30.2364174 70.5123977,27.8889897 L69.7190822,28.2296659 C70.5849012,30.4694005 71.0642693,32.8639879 71.1149514,35.3303707 L64.6649514,35.3303707 C64.6191968,33.7543915 64.3207356,32.2213488 63.7913893,30.7769945 L62.9980738,31.1169667 C63.4844811,32.4550357 63.7576012,33.8726427 63.8033559,35.3303707 L57.953094,35.3303707 C57.8566572,33.569272 57.1738568,31.9207936 55.9962021,30.6066564 L60.1338317,26.4706788 C61.4114428,27.8291602 62.3772182,29.407251 62.9980738,31.1176706 L63.7913893,30.7769945 C63.1268908,28.9680322 62.0991706,27.2991413 60.7420168,25.8611219 L65.3027011,21.3007068 C67.2490342,23.326463 68.734301,25.678114 69.7190822,28.2296659 L70.5123977,27.8889897 C69.4846775,25.2388951 67.936762,22.7957402 65.912294,20.6918538 L70.0421805,16.5615072 C72.5995144,19.198932 74.5641493,22.2593864 75.8811797,25.5809791 L76.6744953,25.2410068 C75.3138219,21.8201676 73.2872422,18.6682092 70.6517734,15.953358 L75.2117538,11.3922391 C78.4364018,14.6962348 80.9240478,18.5295455 82.6042999,22.6922704 L83.4032468,22.3487787 C81.6279657,17.9565902 78.9748991,13.9219708 75.5235894,10.4715688 C72.0596093,7.0070893 68.0071538,4.34784436 63.5957001,2.57266815 L63.2775292,3.3814221 C67.4496508,5.06227888 71.2923388,7.55259349 74.6021609,10.783386 L70.0421805,15.3438011 C67.3722198,12.7570554 64.2792044,10.7517116 60.9215159,9.39252633 L60.6068646,10.1949454 C63.854038,11.5118981 66.8463931,13.4517814 69.4325876,15.9596929 L65.303405,20.0893356 C63.2958311,18.1578988 60.9813489,16.6586421 58.4718815,15.6316865 L58.1565262,16.4341056 C60.5575903,17.4174209 62.7721161,18.8526248 64.6938121,20.6988925 L60.1338317,25.2586037 C58.8512932,24.0493441 57.3843283,23.1005187 55.799809,22.4388749 L55.4844538,23.241294 C56.9612736,23.8607052 58.3268744,24.7433662 59.5242388,25.8681606 L55.388017,30.0048421 C54.0730983,28.8272569 52.4252265,28.1444968 50.6633199,28.0487696 L50.6633199,22.1981492 C52.3442759,22.2502361 53.9724381,22.6071014 55.4844538,23.2419979 L55.799809,22.4388749 C54.1885409,21.7659691 52.4533832,21.3886914 50.6633199,21.3359006 L50.6633199,14.8869853 C53.2741515,14.939776 55.8047364,15.4704988 58.1572302,16.4341056 L58.4725854,15.6323904 C56.0208392,14.6293666 53.3832588,14.0782314 50.662616,14.0254406 L50.662616,8.18326672 C54.1258922,8.23605745 57.4835807,8.92656017 60.6068646,10.1928338 L60.9215159,9.3904147 C57.6989796,8.08542791 54.2357034,7.37451277 50.662616,7.32172204 L50.662616,0.871398951 C55.0557678,0.924893555 59.316583,1.7906615 63.2782331,3.38564536 L63.5957001,2.5768914 C59.4038688,0.88899586 54.8868275,0 50.2325221,0 C44.4815126,0 39.048674,1.37185505 34.2303558,3.79318978 L34.623142,4.54492975 C39.2858944,2.20876406 44.444205,0.936155577 49.8017243,0.871398951 L49.8017243,7.32172204 C45.4325057,7.38647867 41.3033231,8.44722036 37.6218324,10.2751873 L38.0132107,11.0255195 C41.6404998,9.22993089 45.6450889,8.24591172 49.8010204,8.18256285 L49.8010204,14.0226251 C46.5524392,14.0866779 43.4784296,14.8679806 40.7268144,16.2109768 L41.1210084,16.9641245 C43.7994161,15.6640648 46.7446088,14.945407 49.8017243,14.8841698 L49.8017243,21.333789 C47.7744407,21.3936185 45.8520408,21.8743661 44.1161792,22.688751 L44.512485,23.4447143 C46.1540216,22.6817123 47.9454927,22.2523477 49.8017243,22.1953337 L49.8017243,28.0459541 C48.8936702,28.0966332 48.0285551,28.3035729 47.2303121,28.6400258 L47.625914,29.3966929 C48.4417549,29.0623516 49.3237641,28.8863825 50.2325221,28.8863825 C52.0697479,28.8863825 53.7971625,29.6015209 55.0972989,30.9008767 C56.3967314,32.2002325 57.111912,33.928249 57.111912,35.7660702 C57.111912,39.55926 54.0266397,42.6464617 50.2325221,42.6464617 C48.3938885,42.6464617 46.6664739,41.9306195 45.3670414,40.6312637 C44.0676089,39.331204 43.3517243,37.6038914 43.3517243,35.7660702 C43.3517243,33.928249 44.0676089,32.2002325 45.3670414,30.9008767 C46.0245007,30.24416 46.7910673,29.7380729 47.625914,29.395989 L47.2303121,28.6400258 C46.4369966,28.9750709 45.7119611,29.4375177 45.0791389,30.0041382 L40.9401015,25.8653451 C42.0093528,24.8602097 43.2137564,24.0479363 44.5117811,23.4447143 L44.1154753,22.6880472 C42.719606,23.3433561 41.4448107,24.2140511 40.3347321,25.2607153 L35.7698243,20.6953731 C37.3705337,19.1581071 39.1760832,17.9087266 41.1210084,16.9641245 L40.7268144,16.2102729 C38.6727818,17.2125928 36.7982484,18.5260262 35.1679745,20.092855 L31.0310488,15.9568774 C33.1188694,13.9311212 35.4755866,12.2805311 38.0132107,11.0248156 L37.6211285,10.2751873 C34.9652461,11.5942516 32.538841,13.3110061 30.4306068,15.3571747 L25.8607716,10.7876093 C28.4807541,8.23042644 31.4365055,6.14202524 34.6224381,4.54492975 L34.2296519,3.79318978 C27.2650879,7.29215923 21.5957328,12.9956695 18.1430154,19.9865696 L18.892688,20.3912986 C20.5025483,17.1168657 22.6319,14.080343 25.2518826,11.3964624 L29.8217178,15.9660278 C27.6958856,18.1564911 25.9199007,20.6862228 24.5824566,23.4658306 L25.3286096,23.8691517 C26.6027011,21.2077951 28.3111099,18.7421162 30.4214559,16.5664343 L34.5583815,20.7024119 C32.8908,22.4374672 31.5111208,24.448442 30.489032,26.657206 L31.2365928,27.0605272 C32.2002565,24.960864 33.516583,23.0167574 35.1609353,21.3049301 L39.7258431,25.8695684 C38.5587471,27.1076869 37.6084579,28.5513374 36.9341046,30.1392825 L37.6880007,30.5475308 C38.3081524,29.0574245 39.1964968,27.6799384 40.3298046,26.4741982 L44.469546,30.6129913 C43.3327185,31.8827842 42.6112027,33.5249278 42.5112463,35.334594 L36.6595766,35.334594 C36.7116665,33.666407 37.0629215,32.0496029 37.6880007,30.5468269 L36.9341046,30.1392825 C36.2520081,31.7434167 35.8528866,33.4960689 35.797981,35.334594 L29.3486849,35.334594 C29.4064062,32.4318078 30.0575303,29.629676 31.2365928,27.0605272 L30.4883281,26.6565022 C29.2613991,29.3058928 28.5483302,32.2410573 28.4877933,35.334594 L22.6466823,35.334594 C22.7079232,31.3013823 23.6328713,27.4103538 25.3286096,23.8684478 L24.5824566,23.4651267 C22.8472989,27.0682698 21.8498472,31.0895156 21.7857907,35.334594 L15.3357907,35.334594 C15.3991433,30.0667832 16.6295918,24.9911307 18.8919841,20.3912986 L18.1430154,19.9865696 C15.7912256,24.7497011 14.4636364,30.1040886 14.4636364,35.7653663 C14.4636364,39.2284381 14.9577868,42.6126757 15.9031485,45.8462837 L16.74785,45.6337131 C15.8595056,42.6035253 15.3745062,39.4367855 15.3357907,36.1968425 L21.7850868,36.1968425 C21.8252101,38.8983201 22.2412256,41.5378565 23.0049765,44.0584378 L23.841231,43.8472748 C23.0936702,41.3956734 22.6868056,38.8258208 22.6466823,36.1968425 L28.4863855,36.1968425 C28.5286205,38.3387383 28.8819873,40.4285473 29.5183291,42.416998 L30.3559915,42.2058351 C29.7358398,40.2856604 29.39092,38.2662391 29.3486849,36.1968425 L35.797981,36.1968425 C35.8430318,37.7284775 36.1267107,39.2185838 36.6279003,40.6270404 L37.4662665,40.4151736 C36.9798592,39.0764008 36.7053312,37.6566821 36.6595766,36.1968425 L42.5105424,36.1968425 C42.6069792,37.9579412 43.2897795,39.6064197 44.4674342,40.9205569 L40.3305086,45.0572383 C39.0536014,43.6994608 38.087826,42.1234816 37.4662665,40.4151736 L36.6279003,40.6270404 C37.290287,42.4831624 38.3334934,44.1963975 39.7209156,45.6667953 L35.1609353,50.2265064 C32.942186,47.9177919 31.3189512,45.1811206 30.3573993,42.2072429 L29.519737,42.4191097 C30.5185965,45.5408014 32.2206701,48.4133209 34.5534541,50.8374711 L30.4228637,54.9671138 C27.3347757,51.7827771 25.1040598,47.9839563 23.8433428,43.8486826 L23.0070883,44.0591416 C24.3058169,48.3429332 26.6139638,52.2797138 29.8132708,55.5766707 L25.2532904,60.1363819 C21.217025,56.0011082 18.3344811,51.0380759 16.7499618,45.6351208 L15.9045564,45.8476915 C17.5672105,51.5364203 20.6341809,56.7507365 24.9421587,61.0570522 C27.8591946,63.9746198 31.1936538,66.3234552 34.8082724,68.0542872 L35.2362545,67.2948046 C31.8152134,65.6646269 28.6503983,63.4671249 25.8628833,60.7452349 L30.4228637,56.1862277 C32.7929554,58.4864957 35.4952963,60.3207975 38.4179635,61.6567549 L38.84313,60.9021994 C35.9873349,59.606363 33.3469388,57.8199247 31.0331605,55.5766707 L35.1623431,51.447028 C37.0981174,53.3094849 39.3203863,54.7686207 41.7270817,55.791353 L42.1522482,55.0375014 C39.8145367,54.0570016 37.6528048,52.6464334 35.7733439,50.8402866 L40.3340282,46.2805755 C41.7995853,47.6629887 43.5051784,48.7040218 45.3550748,49.3663695 L45.7858725,48.6026636 C44.0007367,47.9846602 42.3542726,46.9964177 40.9436211,45.6710185 L45.0805468,41.5336332 C46.3947615,42.7126261 48.0426334,43.3946823 49.80454,43.4911134 L49.80454,49.3417338 C48.4164138,49.2987974 47.0655953,49.0454019 45.7858725,48.6033675 L45.3550748,49.3663695 C46.768542,49.8738644 48.2650715,50.1582304 49.80454,50.2032785 L49.80454,56.6521938 C47.1359871,56.5986992 44.5497926,56.0461563 42.1543599,55.0410208 L41.7291935,55.7941685 C44.2555549,56.8682839 46.9846448,57.45954 49.80454,57.5137385 L49.80454,63.3538008 C45.961852,63.2946752 42.2500928,62.4500235 38.8452417,60.9050149 L38.4193714,61.6602742 C41.9544472,63.2749666 45.8112136,64.1562199 49.80454,64.2160493 L49.80454,70.6642608 C44.6821292,70.6023197 39.7385136,69.4416275 35.2390702,67.298324 L34.8103842,68.0571027 C39.5660537,70.3334389 44.8074266,71.5363636 50.2353378,71.5363636 C55.9293299,71.5363636 61.4156663,70.2060373 66.3529466,67.70798 L65.9453782,66.916823 C61.340347,69.2487654 56.1566954,70.5966887 50.6661355,70.6642608 L50.6661355,64.2153455 C55.0198679,64.1512927 59.2102914,63.1074441 62.9973699,61.2034585 L62.5947288,60.4228596 C58.9955964,62.2353412 54.9501801,63.2869325 50.6661355,63.3538008 L50.6661355,57.5137385 C53.9323147,57.4503896 57.0767161,56.6669752 59.9247681,55.2465527 L59.5242388,54.4694732 C56.8451271,55.8061344 53.8436211,56.5867333 50.6661355,56.65149 L50.6661355,50.2032785 C52.746213,50.1420413 54.7488595,49.6415851 56.572007,48.7490699 L56.1742934,47.9776214 C54.5003765,48.794118 52.6364018,49.2790888 50.6661355,49.3410299 L50.6661355,43.4911134 C52.4280421,43.3946823 54.075914,42.7126261 55.3908327,41.5336332 L59.5235349,45.6667953 C58.5338263,46.5952082 57.4061497,47.3758071 56.1742934,47.9776214 L56.572007,48.7497738 C57.8629925,48.1169889 59.0652843,47.2913419 60.1373513,46.2805755 L64.6902925,50.8332478 C63.1698298,52.2937913 61.4283368,53.5206478 59.5242388,54.4701771 L59.9240642,55.2465527 C61.8774364,54.2730917 63.6928408,53.0025948 65.3069246,51.4505474 L69.4276602,55.5703358 C67.4200862,57.5172579 65.1161628,59.1551782 62.5947288,60.4235634 L62.9973699,61.2034585 C65.5575194,59.9160686 67.9346502,58.2387312 70.0457001,56.1890432 L74.5944178,60.7374923 C72.0567936,63.2144333 69.1390538,65.3007228 65.9453782,66.916823 L66.3529466,67.70798 C69.6993725,66.0144535 72.7980192,63.7902041 75.5278129,61.0605716 C78.3969824,58.1915715 80.7128724,54.9171386 82.4346557,51.3710094 L82.4304322,51.3625629" id="Fill-6"></path>
                    <polyline id="Fill-7" points="52.7727273 27.3696364 52.7802273 27.5536364 52.9347273 27.5461364 52.9262273 27.3636364 52.7727273 27.3696364"></polyline>
                    <polygon id="Fill-8" points="51.9909091 27.1287273 52.1959091 27.1287273 52.1959091 26.9727273 51.9909091 26.9727273"></polygon>
                    <polyline id="Fill-9" points="51.7795 27.1532273 51.8015 26.9987273 51.6215 26.9727273 51.6 27.1262273 51.7795 27.1532273"></polyline>
                    <polyline id="Fill-10" points="50.9971818 27.1532273 50.8181818 27.1272273 50.8401818 26.9727273 51.0191818 26.9987273 50.9971818 27.1532273"></polyline>
                    <polygon id="Fill-11" points="49.2545455 27.1287273 49.4595455 27.1287273 49.4595455 26.9727273 49.2545455 26.9727273"></polygon>
                    <polyline id="Fill-12" points="48.6512273 27.1532273 48.6732273 26.9987273 48.4942273 26.9727273 48.4727273 27.1272273 48.6512273 27.1532273"></polyline>
                    <polyline id="Fill-13" points="48.6777273 27.5671364 48.4727273 27.5151364 48.5097273 27.3636364 48.7152273 27.4161364 48.6777273 27.5671364"></polyline>
                    <polyline id="Fill-14" points="48.1068182 27.5451364 48.0818182 27.3891364 48.2333182 27.3636364 48.2588182 27.5196364 48.1068182 27.5451364"></polyline>
                    <polyline id="Fill-15" points="20.0643636 49.6454545 19.9363636 49.6454545 19.9363636 49.8626642 20.1418636 49.8626642 20.1418636 50.1454545 20.2963636 50.1454545 20.2698636 49.81964 20.0643636 49.7540594 20.0643636 49.6454545"></polyline>
                    <polyline id="Fill-16" points="21.8805984 52.4801719 21.7420767 52.1869901 21.5 51.6 22.0171028 51.8274038 22.1905911 52.2834645 22.431323 52.4475962 22.6727273 52.9362325 22.534878 53.1636364 22.1562969 52.8378788 21.8805984 52.4801719"></polyline>
                    <polyline id="Fill-17" points="30.0222754 63.0149962 29.7090909 62.5454545 30.1784866 62.6243375 30.6844586 63.0533108 30.8818182 63.5619184 30.607496 63.7181818 30.4512848 63.4845379 30.0603757 63.366589 30.0222754 63.0149962"></polyline>
                    <path d="M49.6454545,30.1045877 L49.2454243,30.1045877 L49.1730784,29.3067065 L49.3908254,29.1609397 L49.3908254,28.7619991 L48.1183887,28.7619991 L48.0822157,28.3630585 L48.264499,28.2542565 L47.9729876,28.1454545 L47.7552406,28.4355932 L47.6828947,28.7619991 L47.3190374,28.8345338 L47.3190374,29.0158704 L47.0651175,29.0158704 L47.0651175,29.4873457 L46.0466007,30.3221917 L44.0109858,30.249657 C43.8648754,30.576063 43.5017274,30.2126922 43.5017274,30.2126922 C43.4293815,29.9957857 42.9208324,30.2126922 42.9208324,30.2126922 C42.9208324,30.6123303 42.23,30.0320531 42.23,30.0320531 L40.956854,29.1246724 C40.2298487,28.4718605 39.1396953,29.3067065 39.1035223,29.4873457 C39.1396953,29.9957857 38.2672889,29.5961477 38.2672889,29.5961477 C38.2672889,29.5961477 37.5402835,29.3785437 37.4310554,29.6693798 C37.3225365,29.9595184 36.8487418,29.8869837 36.8487418,29.8869837 L36.7763959,30.0320531 L36.4125386,30.1045877 L36.3401927,30.3221917 L35.9039895,30.3947263 L36.9941429,30.358459 C37.284945,30.3221917 36.8849148,30.975701 36.7033408,30.9394337 L36.1947917,30.975701 L36.0125084,31.1563402 L35.5401322,31.1563402 L35.3223852,31.4471763 L34.6315528,31.410909 C34.6315528,31.410909 34.2315226,31.7373149 34.2684048,31.8461169 C34.3045777,31.9549189 34.1953496,32.2813248 34.0861215,32.2813248 C33.9768934,32.2813248 33.7591464,32.6077308 33.8314923,32.7165328 C33.9052568,32.8253348 33.6137453,33.1887055 33.6137453,33.1887055 L33.5413994,33.5513788 L33.3236525,33.6239134 L33.3236525,34.6038287 L32.88674,34.8939674 L32.88674,35.3291753 L32.2320805,36.0182545 L32.3051357,36.5985318 L31.7604137,37.1795065 L31.8320503,37.7597837 L31.5050752,37.8685857 L31.4327293,38.122457 L31.2873282,38.8840709 L31.6511855,38.9210357 C31.8320503,38.8478036 31.7965866,39.3925109 31.6511855,39.4643482 C31.5050752,39.5375803 31.1050449,39.6826496 31.3235012,39.8270214 C31.5419574,39.9727882 30.7418969,39.9365209 30.7418969,39.7189169 C30.7418969,39.5013129 30.3056937,39.3199763 30.1971748,39.3925109 C30.0879467,39.4643482 29.9056634,39.066105 29.9056634,39.066105 C29.5056332,38.6671644 28.2700787,39.1016749 28.2700787,39.1016749 L28.0877954,39.6826496 C27.6884744,39.7551842 27.4338452,40.4079961 27.4338452,40.4079961 C27.1061609,40.5174956 26.8522409,40.9157387 26.9614691,41.0252382 C27.0699879,41.1340401 26.7791858,41.16961 26.7791858,41.16961 L26.7791858,41.9681887 L26.5976118,42.22206 L26.6337847,43.0924759 C26.8522409,43.0924759 26.816068,43.4921139 26.816068,43.4921139 C26.4522107,43.5283812 26.5245566,44.000554 26.5245566,44.000554 L25.7613783,44.2537278 L25.6159772,44.4713318 L24.6712249,44.4350644 L24.4165957,44.6896332 L24.1612572,44.4350644 L22.3433892,44.4350644 L22.2717526,44.2537278 L21.9078953,44.1804957 L21.8710131,43.7822525 L21.326291,43.8178224 L21.2170629,44.0361238 L20.6354586,44.0716937 C20.6716316,44.4350644 20.0538543,44.9790744 19.9815084,44.8347025 C19.907744,44.6889357 19.508423,44.2892977 19.689997,44.2174605 C19.8722803,44.1449258 20.3453657,44.0716937 20.3453657,44.0716937 L20.3453657,43.8178224 L18.9991646,43.7822525 L18.8544728,43.9998565 L18.3083322,44.0361238 L18.3083322,44.6164011 L18.0544123,44.6889357 C17.872129,44.7977377 18.0905852,45.1973758 18.0905852,45.1973758 C18.3445052,45.4505496 18.0544123,45.8494902 18.0544123,45.8494902 C17.8359561,46.0677917 18.2359863,46.4667323 18.2359863,46.4667323 C18.5267885,46.5392669 18.0544123,46.7568709 18.0544123,46.7568709 C18.1267582,47.1195442 18.3452144,47.2283462 18.3452144,47.2283462 C18.1267582,47.5910194 18.4913248,47.7723561 18.4913248,47.7723561 L18.5267885,48.3895981 L18.7814176,48.5346674 L18.7814176,48.9329106 L18.9268187,49.1874793 L19.508423,49.1874793 L19.47225,48.2807961 C18.9629917,47.6998214 19.907744,47.5547521 19.9446262,47.7723561 C19.9815084,47.98996 20.3815387,48.098762 20.3815387,48.098762 C20.4538846,48.6434694 21.0723711,48.9691779 21.2532358,48.4258654 C21.4355191,47.8804606 21.5809202,48.207564 21.6901483,48.4614353 C21.7993764,48.7160041 22.4887903,49.3325486 22.4887903,49.3325486 L23.0349309,49.3325486 L23.1079861,49.8402912 C23.7257633,49.8040239 23.906628,49.877256 24.1612572,50.7114046 C24.4165957,51.5448556 25.1067188,51.7631571 25.1067188,51.7631571 L25.6159772,51.7268897 C25.6159772,51.2923792 26.1252356,51.8001218 26.1252356,52.0177258 C26.1252356,52.2346323 27.1061609,53.0694783 27.1061609,53.0694783 L28.0877954,53.2863848 L28.9977933,54.0131263 L29.6879164,53.9405916 L29.9787186,53.9405916 C30.1602926,53.3233496 31.0334083,53.9761615 31.1050449,54.1937655 C31.1788094,54.4120669 31.7604137,54.7747402 31.8320503,54.5927061 C31.9051054,54.4120669 32.3051357,54.5208689 32.3781909,55.0648788 C32.4505368,55.6095862 32.7044567,55.5000868 32.7044567,55.5000868 L34.7769539,55.4638194 L35.5039593,54.8465774 L37.3587095,54.8110075 C38.3034618,54.7747402 37.7218575,53.5046863 37.5402835,53.5046863 C37.2133084,53.250815 37.6495116,52.1990625 37.6495116,52.1990625 L34.9954101,49.768454 C34.3776329,49.768454 34.922355,48.8966432 34.922355,48.8966432 C35.3954404,48.6065046 34.8131268,48.1357268 34.8131268,48.1357268 C34.886182,47.6998214 34.5584977,47.1920788 34.5584977,47.1920788 C33.9052568,46.7561734 34.0861215,45.9213274 34.0861215,45.9213274 L34.0861215,45.3410502 C33.5413994,44.8340051 34.3045777,44.7600755 34.3045777,44.7600755 C34.5584977,44.325565 34.1222944,43.9991591 34.1222944,43.9991591 L34.0861215,43.5276838 L33.5045172,43.4544517 L33.4321713,41.7491898 L32.1235617,39.8995561 C31.8689325,39.826324 32.0505065,39.391116 32.0505065,39.391116 C32.3774816,39.2097794 31.9774513,38.7752689 31.9774513,38.7752689 L31.9412784,37.9766903 L32.7044567,37.9034581 L32.88674,37.614017 L33.249888,37.614017 L33.2137151,36.670369 C33.3952891,36.1988937 33.8314923,36.452765 33.8314923,36.452765 L34.3400414,36.4890324 L34.6315528,35.944325 L34.7038987,35.509117 L34.3045777,35.4735472 C33.8676653,35.2189784 34.0861215,34.2760279 34.0861215,34.2760279 C34.7769539,33.2598453 35.5763051,33.8401225 35.5763051,33.8401225 L36.0855635,33.8045526 C36.8487418,34.3122952 36.1579094,35.2552457 36.1579094,35.2552457 C36.0125084,35.4735472 36.0855635,36.1626264 36.0855635,36.1626264 L36.2671376,37.3231809 L35.7947614,37.722819 C35.3947311,37.9404229 35.3947311,38.4481655 35.8309343,38.5569675 C36.1217365,38.5925374 36.0125084,39.2823141 35.5763051,38.8108388 C34.922355,38.8108388 35.9401625,39.391116 35.6493603,39.2453493 C36.3040198,39.5724527 36.1579094,38.9552107 36.1579094,38.9552107 L37.0310251,38.2661314 C37.3587095,38.0122601 37.9403138,38.8108388 37.9403138,38.9196408 C37.9403138,39.0284428 39.3943245,38.9552107 39.3943245,38.9552107 C39.7936455,39.2097794 39.9390465,39.8625913 39.9390465,39.8625913 C40.3397861,39.3541513 41.1753103,39.826324 40.557533,40.1164626 C41.138428,40.4791359 41.138428,40.8055418 41.138428,40.8055418 C41.6115135,40.6604725 41.6115135,41.0231458 41.6115135,41.1326452 C41.6115135,41.2414472 41.7569145,40.5886353 41.7569145,40.5886353 C41.2114832,40.1889973 42.4839199,40.043928 42.1207719,40.769972 L41.9023156,41.0963779 L42.2661729,41.3865165 L42.3023459,42.2213625 C43.1024064,42.1481304 42.8839501,41.1689126 42.8839501,41.1689126 L43.2478075,41.0963779 C43.2478075,40.769972 43.5017274,40.9513086 43.5017274,40.9513086 C43.2478075,39.717522 44.0833317,39.499918 44.0833317,39.499918 C44.5564171,39.391116 44.59259,38.4112007 44.59259,38.4112007 C44.265615,38.2661314 44.447189,37.7583888 44.810337,38.1942942 C45.173485,38.6288047 44.59259,37.3224834 44.59259,37.3224834 L44.3017879,37.0693096 L43.9017576,37.0330423 L43.8655847,36.6334042 L43.2116345,36.6334042 L43.1024064,37.1418443 L42.8477772,37.2143789 L42.774722,37.0693096 L42.6654939,37.4682502 L42.0115437,37.4682502 L41.9753708,37.0330423 L42.375401,36.9242403 L42.5208021,36.7066363 L42.629321,36.1256616 L43.1024064,36.1256616 L43.7201836,35.944325 C43.7563566,35.3277804 44.0840409,35.4728497 44.0840409,35.4728497 L44.3017879,35.6541864 L44.628763,35.9080577 L44.6656452,36.1256616 L44.447189,36.2344636 L44.411016,36.5252997 L44.5202441,36.9242403 L44.8110463,36.9242403 C44.9195651,36.3432656 45.6834527,36.3432656 45.9019089,36.7059389 L46.1196559,36.1981963 C45.6111068,35.944325 46.1104354,35.5453844 46.2558364,35.726721 C46.4012375,35.9080577 46.7374331,35.2552457 46.7374331,35.2552457 C46.7374331,35.2552457 46.9920623,35.5816517 46.7374331,35.1464438 C46.4835132,34.7105384 46.9190072,34.4929344 46.9190072,34.4929344 C46.8466613,34.0577265 47.3920926,34.1302611 47.3920926,34.1302611 L47.4289748,33.5499839 L46.9190072,33.5137166 C46.8111976,34.0214591 46.3742851,33.5862512 46.5927413,33.4774492 C46.8111976,33.3686472 47.0282353,33.1510433 47.0282353,33.1510433 L47.0282353,32.7876725 L47.2466915,32.7151379 L47.2828645,32.3524646 L47.8282958,32.3524646 L48.300672,32.1348606 L48.4099001,31.953524 L48.9184492,31.9172567 L49.6454545,31.2644448 L49.5738179,30.9743061 C49.1369054,30.9743061 49.5738179,30.6472027 49.5738179,30.6472027 L49.6454545,30.1045877" id="Fill-18"></path>
                    <path d="M35.1818182,36.8133553 L34.4660102,36.7454545 L34.5063374,36.9831072 L34.7048714,36.9831072 C35.0220604,37.4590655 34.7444231,38.6133787 34.7444231,38.6133787 C34.7444231,38.6133787 34.2682518,38.6473291 34.1875974,38.4436267 C34.1092695,38.2399244 33.9099601,38.8856346 34.0689423,38.9874858 C34.2271491,39.0886841 34.7847503,38.9874858 34.8235264,39.3609401 C34.8630781,39.7343943 35.1818182,39.1232874 35.1818182,39.1232874 L35.1818182,36.8133553" id="Fill-19"></path>
                    <polyline id="Fill-20" points="34.867994 40.193426 34.4 40.0021105 34.4 40.7673725 35.1513498 41.4363636 35.4310494 40.9899608 35.5261107 40.7029875 35.1970524 40.607943 35.243669 40.1302674 35.5261107 40.0971551 35.5727273 39.8727273 34.867994 40.193426"></polyline>
                    <polyline id="Fill-21" points="35.3873182 42.2181818 35.2083182 42.2441818 35.1818182 42.4521818 35.3873182 42.4781818 35.3873182 42.2181818"></polyline>
                    <polyline id="Fill-22" points="34.617 43.7818182 34.4 43.8073182 34.4 43.9903182 34.617 43.9643182 34.617 43.7818182"></polyline>
                    <path d="M35.2908182,42.8295909 C35.3508182,42.8295909 35.3988182,42.7800909 35.3988182,42.7195909 C35.3988182,42.6580909 35.3508182,42.6090909 35.2908182,42.6090909 C35.2308182,42.6090909 35.1818182,42.6580909 35.1818182,42.7195909 C35.1818182,42.7800909 35.2308182,42.8295909 35.2908182,42.8295909" id="Fill-23"></path>
                    <path d="M35.6817273,43.7818182 C35.7417273,43.7818182 35.7902273,43.8313182 35.7902273,43.8923182 C35.7902273,43.9533182 35.7417273,44.0028182 35.6817273,44.0028182 C35.6217273,44.0028182 35.5727273,43.9533182 35.5727273,43.8923182 C35.5727273,43.8313182 35.6217273,43.7818182 35.6817273,43.7818182" id="Fill-24"></path>
                    <path d="M35.6817273,39.0909091 C35.7417273,39.0909091 35.7902273,39.1399091 35.7902273,39.2009091 C35.7902273,39.2619091 35.7417273,39.3114091 35.6817273,39.3114091 C35.6217273,39.3114091 35.5727273,39.2619091 35.5727273,39.2009091 C35.5727273,39.1399091 35.6217273,39.0909091 35.6817273,39.0909091" id="Fill-25"></path>
                    <polyline id="Fill-26" points="47.0999516 35.9636364 47.1630518 35.5668681 47.1855009 35.2688142 47.3183753 35.0688379 47.6909091 34.9032525 47.6909091 34.2740277 47.5046422 34.2740277 47.4736989 34.0415711 47.130895 34.0090909 47.069615 34.1740395 46.9142915 34.1740395 46.8821347 34.4396131 47.069615 34.4396131 47.0999516 34.6383157 46.9755715 34.7707841 46.9142915 34.9363696 46.6649244 35.0032406 46.1049103 35.5668681 46.0745737 35.831168 45.9186434 36.0636245 45.7329833 36.5603809 45.0789256 36.5928612 44.9545455 37.1889689 45.0467688 37.6857253 45.6067829 37.9181818 45.6698831 37.5876477 45.85615 37.4876596 45.8883068 37.1564886 46.0114735 36.9240321 46.1989538 36.6928493 46.2602338 36.4272757 46.5708809 36.22921 46.9446281 36.1617021 47.0999516 35.9636364"></polyline>
                    <path d="M49.1351626,36.7154772 L49.1351626,36.2449331 L49.0585368,35.8079993 L48.4926843,35.5727273 L48.0778731,35.9088302 L48.001984,36.3793742 L48.001984,36.6818669 L47.6240122,36.7497338 L47.5481232,37.6572116 L47.2467772,37.7580425 L47.2843534,38.0947918 L46.8688054,38.1949763 L46.4539943,38.2964535 L46.3781052,38.7333873 L46.0767593,38.9014387 L45.9242444,39.3047622 L45.7363636,40.280107 C45.7363636,40.280107 46.0760225,40.8514819 46.26464,40.5825996 C46.4539943,40.3137173 46.756077,40.280107 46.756077,40.280107 L46.8688054,40.0441886 L47.8885188,40.0777989 C47.9644079,39.7080857 48.4551081,39.8425269 48.4551081,40.0105783 C48.4551081,40.1786298 48.8330799,40.0441886 48.8330799,40.0441886 L49.0968497,39.6744754 L49.5123976,39.6744754 L49.5499738,39.2711519 L49.7393281,39.1703211 L49.7393281,38.5646895 C50.3434935,38.396638 50.2676044,37.8924837 50.2676044,37.8924837 L50.4193826,37.7244322 L50.3434935,37.4898065 C50.040674,37.3883293 50.1917154,37.1524109 50.3810696,37.2202779 C50.5704239,37.2868521 50.1165631,36.9171389 50.1165631,36.9171389 C49.8903694,37.0858367 49.7017519,36.7154772 49.7017519,36.7154772 L49.1344258,36.7154772 L49.1351626,36.7154772" id="Fill-27"></path>
                    <path d="M49.2545455,41.1976285 C49.2202316,41.45808 48.7021593,41.5454545 48.7021593,41.5454545 L48.323361,41.4802372 L48.1168049,41.3715415 L48.0818182,41.0667756 L48.3919887,41.0454545 L48.4612893,41.1758893 L49.2545455,41.1976285" id="Fill-28"></path>
                    <path d="M51.1001818,39.0104 C51.1556818,39.362553 51.1511818,38.442913 51.2536818,38.4841141 C51.3561818,38.5245378 51.2796818,37.9181818 51.2796818,37.9181818 L50.8181818,38.442913 C51.0486818,38.4841141 51.0741818,38.8487051 51.1006818,39.0104 L51.1001818,39.0104" id="Fill-29"></path>
                    <path d="M53.5326149,36.887544 C53.6966943,37.2097933 53.6558745,37.674272 54.2705719,38.0322505 C54.4778722,38.1524928 54.1473123,38.3895418 53.9416128,38.2816673 C53.7367136,38.1744799 53.1636364,37.388439 53.1636364,37.388439 L53.1636364,36.9232731 C53.2860956,36.6381271 53.4613804,36.7494371 53.5326149,36.887544" id="Fill-30"></path>
                    <polyline id="Fill-31" points="53.3426364 48.0818182 53.1636364 48.2133182 53.2396364 48.2903182 53.3156364 48.4203182 53.4956364 48.1348182 53.3426364 48.0818182"></polyline>
                    <polyline id="Fill-32" points="57.7496364 47.0405909 57.6676364 46.9090909 57.4636364 47.0380909 57.5441364 47.1705909 57.7496364 47.0405909"></polyline>
                    <path d="M68.0289223,54.5892045 L68.3732291,54.7260459 L68.4113195,55.3110924 C68.8713911,55.7235997 70.3636364,55.3798436 70.3636364,55.2767168 C70.3636364,55.1729289 70.2867088,54.004158 70.2867088,54.004158 L70.0955102,53.83228 L70.0574199,52.9722286 C70.2105281,52.5253456 69.329969,51.8715479 69.2530414,52.0097114 C69.1768607,52.1472139 68.6794456,52.043426 68.6794456,52.1815895 C68.6794456,52.3184309 68.3732291,53.0066042 68.5263374,53.2472335 C68.6794456,53.4885238 68.4113195,53.4885238 68.3732291,53.7291531 C68.3351388,53.9697824 67.9519947,54.3829508 68.0281754,54.5892045 L68.0289223,54.5892045" id="Fill-33"></path>
                    <path d="M67.1735771,53.2177083 C67.1292331,53.3786017 66.9632858,53.4725243 66.869569,53.4088203 C66.7749379,53.3447079 66.9861435,53.5145853 67.0332305,53.5999324 C67.0798603,53.684871 67.2202069,53.684871 67.267751,53.5999324 C67.3139237,53.5145853 67.2910659,53.3238816 67.3381529,53.238943 C67.3843256,53.1540043 67.1973492,53.1327696 67.1735771,53.2177083" id="Fill-34"></path>
                    <polygon id="Fill-35" points="65.6727273 46.6217727 65.8517273 46.6217727 65.8517273 46.1272727 65.6727273 46.1272727"></polygon>
                    <path d="M69.2143154,39.3403192 C69.0185247,39.1888192 70.1102327,38.9243192 70.2894161,39.2363192 C70.4685996,39.5483192 70.2894161,39.4968192 70.1102327,39.4708192 C69.9301752,39.4443192 69.4835276,39.5483192 69.2143154,39.3403192" id="Fill-36"></path>
                    <polyline id="Fill-37" points="70.3636364 34.553 70.6451364 34.6045 70.6726364 34.4515 70.3901364 34.4 70.3636364 34.553"></polyline>
                    <polyline id="Fill-38" points="68.7901427 34.6695 68.9090909 34.612 68.8661026 34.482 68.8385567 34.4 68.7751176 34.443 68.6156852 34.5505 68.4767036 34.4455 68.4090909 34.5765 68.5806268 34.7065 68.6127637 34.731 68.645318 34.709 68.7742829 34.622 68.7901427 34.6695"></polyline>
                    <path d="M70.5164615,26.3766437 L69.9886656,26.3766437 C69.9886656,26.3766437 70.1643688,26.4482796 69.6722626,25.9826462 C69.1794701,25.516324 68.8630671,26.0901001 68.8630671,26.0901001 L68.3002678,26.161736 L68.3002678,26.7348232 L68.0181818,26.8422771 L68.0538715,27.2004566 L68.4409676,27.1653275 C68.4409676,27.1653275 68.4409676,27.5951429 68.5466641,27.4160531 C68.6523605,27.2362746 69.5315628,27.4511823 69.4608697,27.8816865 C69.4327298,28.058021 70.3407583,28.5264097 70.2357482,29.0994969 C70.6928511,29.1711328 70.5871546,29.637455 70.5871546,29.637455 L71.1849573,29.7090909 L71.3613468,29.3509114 L71.5363636,29.3867293 L71.5363636,29.1711328 L71.1492675,29.0643678 L71.0792608,27.9175045 L70.8335509,27.7384147 L70.9035576,27.4511823 L70.622158,27.3437284 L70.7628578,26.878095 L70.5164615,26.3766437" id="Fill-39"></path>
                    <path d="M72.0468176,29.7422717 L71.7754534,29.7090909 L71.1638911,29.8086332 L70.8256786,30.4390677 C70.8256786,30.4390677 70.9951158,30.53861 71.130136,30.7708753 C71.2658181,31.0037788 71.3339901,32.3641901 70.9269438,32.5970935 C70.5198974,32.8293589 70.9613607,32.6959977 70.9613607,32.6959977 L70.8931887,33.4266126 C70.9951158,33.7584202 71.1638911,33.5925164 71.2658181,33.4266126 C71.368407,33.2607088 71.4703341,33.227528 71.6060162,33.0616242 C71.7416983,32.8950823 71.9448905,32.5970935 71.9786456,32.3641901 C72.0124007,32.1319247 72.1824997,31.7669363 72.0805727,31.667394 C71.9786456,31.5678518 72.1824997,31.1033211 72.1824997,31.1033211 C72.1824997,31.1033211 72.3181818,30.8372369 72.1824997,30.5724288 C72.0468176,30.3063447 72.2162548,30.0077178 72.3181818,29.8749947 L72.0468176,29.7422717" id="Fill-40"></path>
                    <polyline id="Fill-41" points="72.7090909 31.0903182 72.7350909 30.8818182 72.8880909 30.9018182 72.8615909 31.1098182 72.7090909 31.0903182"></polyline>
                    <polyline id="Fill-42" points="72.0642727 32.2800455 71.9272727 32.2105455 72.0042727 32.0545455 72.1412727 32.1240455 72.0642727 32.2800455"></polyline>
                    <path d="M71.6492196,29.5237523 L71.5235429,29.1901429 C71.5235429,29.1901429 71.5235429,28.8936012 71.5863813,28.7446175 C71.6492196,28.5963466 71.4613147,28.4487886 71.3679723,28.411008 C71.2740198,28.3739403 71.3051339,28.0773986 71.2740198,27.9291278 C71.2429056,27.7808569 71.0238865,27.6696538 71.0238865,27.6696538 C71.0238865,27.6696538 70.9610482,27.113638 70.9610482,27.0024349 C70.9610482,26.8912317 70.6798008,26.7429609 70.7737533,26.6310449 C70.8677058,26.5198417 70.929934,26.3722837 71.0238865,26.2974355 C71.117839,26.2233 70.929934,25.704352 71.0861148,25.8155552 C71.2429056,25.9267583 71.2429056,26.1120969 71.3051339,26.2603677 C71.3679723,26.4086386 71.2740198,26.9282995 71.4308106,27.0395026 C71.5863813,27.1507057 71.3990864,27.5213829 71.6492196,27.5213829 C71.8993529,27.5213829 71.7431721,28.2256695 71.7431721,28.2256695 C71.7431721,28.2256695 71.6803338,28.7446175 71.8365145,28.782398 C71.9933054,28.8194658 71.8993529,29.7090909 71.8993529,29.7090909 L71.6492196,29.5237523" id="Fill-43"></path>
                    <path d="M69.5818182,23.4827492 C69.6879097,23.5955644 69.9014795,23.6801757 69.9014795,23.7935332 C69.9014795,23.9063483 69.8307519,23.9904173 70.0443217,24.0191634 C70.2565047,24.0468248 70.3993469,23.9904173 70.4700746,24.1319786 C70.5414957,24.2724551 70.5414957,24.4986277 70.5061318,24.6114428 C70.4700746,24.7242579 70.5414957,24.8934806 70.7190083,24.8934806 C70.8965209,24.8934806 70.9318847,24.9216844 70.9318847,25.0062957 C70.9318847,25.0909071 71.1454545,24.6960542 71.1454545,24.6960542 C70.9672485,24.583239 70.8250998,24.3288626 70.8250998,24.3288626 C70.8250998,24.3288626 70.6482806,23.9340097 70.6482806,23.8776022 C70.6482806,23.8211946 70.3993469,23.764787 70.292562,23.7365833 C70.1857771,23.7083795 70.0082645,23.4545455 70.0082645,23.4545455 L69.5818182,23.4827492" id="Fill-44"></path>
                    <path d="M70.0684745,22.6727273 C69.980661,22.5423757 69.8928474,22.4450797 69.7759527,22.3808395 C69.6596283,22.3153518 69.5718147,22.2504878 69.4543498,22.2504878 C69.3374551,22.2504878 69.2211306,22.1207599 69.2787227,21.9586 C69.3374551,21.7964401 69.1909091,21.7315762 69.1909091,21.6012246 C69.1909091,21.4721203 69.2787227,21.4721203 69.4252687,21.5694163 C69.5718147,21.6667122 69.5421634,21.6991442 69.6596283,21.8613041 C69.7759527,22.023464 69.834115,22.1856239 69.9510096,22.1531919 C70.0684745,22.1207599 70.1557179,22.4450797 70.2726126,22.3477838 C70.3895073,22.2504878 70.3604261,22.5748076 70.3604261,22.5748076 L70.0684745,22.6727273" id="Fill-45"></path>
                    <path d="M65.8957054,26.4698467 C66.0799399,26.6422038 64.8909091,26.59416 64.8909091,26.4698467 C64.8909091,26.3449328 64.9921727,25.9077343 65.292697,26.0008191 C65.5938745,26.0945045 65.6271935,25.4387068 65.6271935,25.4387068 C65.6271935,25.4387068 65.3599883,25.4693347 65.5938745,25.3450214 C65.8284141,25.2201075 65.5938745,25.0321362 65.4932642,24.9390514 C65.3933073,24.8447654 65.292697,24.6886231 65.292697,24.6886231 L65.7617761,24.6886231 C65.9629967,24.5637092 66.0296347,23.9703684 66.0296347,23.9703684 C66.4307693,24.0952823 66.6319899,23.8454545 66.6319899,23.8454545 C66.6319899,23.8454545 66.6999345,24.0328253 66.8338638,24.1889677 C66.9671397,24.34511 66.4980606,24.4075669 66.6659622,24.5012523 C66.8338638,24.5955382 66.8998484,24.8759939 66.8338638,24.9696793 C66.7665725,25.0633647 66.3974503,25.0009077 66.3974503,24.8759939 C66.3974503,24.75108 66.263521,25.0321362 66.3974503,25.1888791 C66.5313796,25.3450214 66.230202,25.5636206 66.1629107,25.5636206 C66.0962727,25.5636206 65.6611658,25.6260776 66.0289814,25.8134484 C66.3974503,26.0008191 66.7998915,25.9071338 66.7998915,25.9071338 C66.7998915,25.9071338 67.101069,25.8759053 67.2016793,26.0320476 C67.3022896,26.1881899 67.1683603,26.2200189 67.0004587,26.2200189 C66.8338638,26.2200189 66.0296347,26.1569615 66.0296347,26.1569615 C66.0296347,26.1569615 65.7950951,26.3755607 65.8957054,26.4698467" id="Fill-46"></path>
                    <path d="M63.7927706,27.3896364 C63.9033199,27.3636364 64.1674336,27.3376364 64.2117394,27.4156364 C64.2560451,27.4936364 64.0573145,27.5976364 64.0573145,27.5976364 L63.7927706,27.6496364 C63.7045893,27.5196364 63.6826515,27.4156364 63.7927706,27.3896364" id="Fill-47"></path>
                    <path d="M68.4090909,24.3867133 C68.6731348,24.2664336 69.234067,24.2664336 69.2012225,24.086014 C69.168378,23.9055944 69.5309553,23.8454545 69.5309553,23.8454545 L69.6301328,24.2062937 L69.9270212,24.3867133 L69.9605096,24.7174825 C69.9605096,24.7174825 70.0590431,24.6573427 69.6964658,24.7475524 C69.3326004,24.8377622 69.5644438,24.9881119 69.5644438,24.9881119 L68.7716682,25.0181818 L68.6731348,24.7174825 L68.4090909,24.3867133" id="Fill-48"></path>
                    <path d="M66.4327829,22.7293026 C66.6051622,22.7293026 66.376247,23.6123332 66.8301975,23.5362863 C67.2847023,23.4587627 66.8590198,23.8050347 67.1998984,23.842689 C67.540777,23.88182 67.4554188,23.4971553 67.569045,23.2291452 C67.6832254,22.9596584 67.6261352,22.8060879 67.4271508,22.7293026 C67.2276121,22.6525174 67.2276121,22.6525174 67.1716304,22.344638 C67.1145402,22.0382352 66.8872878,21.9607116 66.8872878,21.9607116 L66.8019295,21.5 L66.4327829,21.8071411 L66.0636364,22.4605542 C66.0636364,22.9596584 66.2620665,22.7293026 66.4327829,22.7293026" id="Fill-49"></path>
                    <polyline id="Fill-50" points="68.0181818 25.956 68.0951818 25.8 68.2326818 25.87 68.1556818 26.026 68.0181818 25.956"></polyline>
                    <polygon id="Fill-51" points="67.2363636 25.2001818 67.3903636 25.2001818 67.3903636 25.0181818 67.2363636 25.0181818"></polygon>
                    <polyline id="Fill-52" points="67.3893636 20.3272727 67.4148636 20.5612727 67.2623636 20.5787727 67.2363636 20.3447727 67.3893636 20.3272727"></polyline>
                    <polygon id="Fill-53" points="67.2363636 23.9759545 67.3903636 23.9759545 67.3903636 23.8454545 67.2363636 23.8454545"></polygon>
                    <polyline id="Fill-54" points="66.8604545 23.6355455 66.8454545 23.4800455 67.1019545 23.4545455 67.1169545 23.6100455 66.8604545 23.6355455"></polyline>
                    <polyline id="Fill-55" points="63.4677727 27.2162273 63.3272727 27.1547273 63.4042727 26.9727273 63.5452727 27.0342273 63.4677727 27.2162273"></polyline>
                    <polyline id="Fill-56" points="62.5604545 26.3719091 62.5454545 26.2169091 62.8019545 26.1909091 62.8169545 26.3459091 62.5604545 26.3719091"></polyline>
                    <polyline id="Fill-57" points="55.1181818 26.9982273 55.1243222 27.1537273 55.6181818 27.1282273 55.6116029 26.9727273 55.1181818 26.9982273"></polyline>
                    <polyline id="Fill-58" points="54.3873636 26.4584091 54.3363636 26.2249091 54.4868636 26.1909091 54.5378636 26.4249091 54.3873636 26.4584091"></polyline>
                    <polyline id="Fill-59" points="54.3848636 27.1467273 54.3363636 26.9987273 54.4133636 26.9727273 54.4618636 27.1207273 54.3848636 27.1467273"></polyline>
                    <path d="M56.325834,26.2489362 L56.2909091,26.3961257 L56.6764525,26.4175572 C56.6764525,26.4175572 56.8517618,26.5016654 56.8517618,26.5647467 C56.8517618,26.6278279 57.0982905,26.6909091 57.23799,26.6909091 C57.3783744,26.6909091 57.7646026,26.5222881 57.7646026,26.5222881 C57.7646026,26.5222881 57.9405967,26.2279091 57.8002123,26.2489362 C57.6591432,26.2699633 57.3783744,26.3961257 57.3441343,26.2699633 C57.3085246,26.1438008 56.8873715,26.2064777 56.8873715,26.2064777 L56.325834,26.2489362" id="Fill-60"></path>
                    <path d="M57.8657796,26.4477569 C57.8657796,26.5708886 57.7947294,26.7350642 58.0099906,26.7761081 C58.2273622,26.8171519 58.6241181,26.6119325 58.6592915,26.8581958 C58.6958719,27.1044592 58.6958719,27.269424 58.9842938,27.3925557 C59.2720122,27.5156874 59.4528034,27.5567313 59.6694716,27.5567313 C59.8847328,27.5567313 60.3546494,27.4738542 60.3546494,27.4738542 C60.3546494,27.4738542 60.8646637,27.563835 60.9673701,27.6798629 C61.3634225,28.1313457 61.6159676,28.2544774 61.7243016,28.0492579 C61.8319322,27.8440385 61.6884248,27.3925557 61.6525479,27.2283801 C61.6159676,27.0634153 61.1108775,26.2835814 60.9307897,26.4477569 C60.7507019,26.6119325 60.714825,26.4477569 60.3898228,26.5708886 C60.0655241,26.6940203 59.3803462,26.6119325 59.3444694,26.4477569 C59.3085925,26.2835814 58.8042059,26.2014936 58.8042059,26.0373181 C58.8042059,25.8723532 58.4440303,25.6679231 58.4792037,25.9141864 C58.5150806,26.1596604 58.2273622,26.2835814 58.1542015,26.2014936 C58.0824478,26.1194058 57.8657796,26.4477569 57.8657796,26.4477569" id="Fill-61"></path>
                    <path d="M66.9787221,21.9268466 L67.2363636,21.0977107 C66.8689194,21.0223347 66.9421212,20.6077668 66.9421212,20.6077668 C66.9055203,20.2685748 66.3909548,19.8916949 66.206515,20.0047589 C66.0227929,20.1170981 66.0959947,19.2125862 66.0959947,19.2125862 C66.0959947,19.2125862 66.4275557,18.9864583 66.5746769,19.0995222 C66.7217982,19.2125862 65.3237876,17.2143978 65.0295451,17.4028377 C64.7353027,17.5912777 64.073616,17.2143978 64.1102168,16.8752058 C64.1468177,16.5360139 62.7861257,15.4046493 62.7861257,15.4046493 C62.7861257,15.4046493 62.344762,15.1031453 62.2708426,15.3299981 C62.1976408,15.5554013 62.0505196,15.706878 62.2708426,15.8192172 C62.4911656,15.933006 62.4545647,15.6307772 62.7122063,15.8945932 C62.9691302,16.1584092 63.4485301,16.4983259 63.2640903,16.7244538 C63.0803682,16.9505818 62.8593275,17.0259578 62.8593275,17.0259578 L63.1169691,17.3281865 L63.5217319,17.3281865 L63.5949337,17.9681576 C63.5949337,17.9681576 64.0362974,18.1950104 64.1468177,18.4588263 C64.2573381,18.7226423 64.2573381,18.8733943 64.1468177,19.0241463 C64.0362974,19.1748982 63.816692,19.4387142 63.8525753,19.7025301 C63.8891762,19.9663461 64.1841363,20.0794101 64.1841363,20.0794101 L64.4776611,20.1178229 L64.6987018,20.2308868 L64.6987018,20.7215555 C64.9929442,20.6454548 65.4709088,21.0600227 65.4343079,21.3238387 C65.3977071,21.5883794 65.5075097,21.4369026 65.874954,21.7014434 C66.2438336,21.9652593 66.1333132,22.0029473 66.3909548,22.1913873 C66.6485964,22.3791025 66.8689194,22.2667633 66.9787221,21.9268466" id="Fill-62"></path>
                    <path d="M60.3572691,16.3044344 C60.326179,16.1632546 60.2633893,15.6714897 60.4511488,15.7066158 C60.6382987,15.7417418 60.5139385,15.7066158 60.732788,15.811994 C60.9510279,15.9173722 60.982118,15.6363636 60.982118,15.6363636 L61.3265469,15.6363636 L61.7636364,16.0227504 L61.7008467,16.338885 L61.3881174,16.374011 C61.2326672,16.0930025 60.9199379,16.1983807 60.982118,16.4449387 C61.0449077,16.6901456 60.8260582,17.14746 60.701698,17.1825861 C60.5767282,17.2177121 60.1695096,17.2177121 60.2018188,17.0069557 C60.2322993,16.7961993 60.3572691,16.3044344 60.3572691,16.3044344" id="Fill-63"></path>
                    <path d="M60.2,15.2454545 L60.2,14.9583405 C60.2,14.9583405 60.1669475,14.6712265 60.0042276,14.6712265 C59.8421434,14.6712265 59.5484848,14.455891 59.6133186,14.312334 C59.6787879,14.1680869 59.0596896,14.0245298 59.0596896,14.0245298 C59.0596896,14.0245298 58.5060606,13.4503018 58.701833,13.5220803 C58.8969697,13.5938588 58.7997191,13.2708556 58.7997191,13.2708556 C58.7997191,13.2708556 58.4081744,13.3426341 58.3102882,13.3067448 C58.2124021,13.2708556 58.2448189,12.9478523 58.2448189,12.9478523 C58.2448189,12.9478523 57.8545455,12.8401846 57.8545455,12.9478523 C57.8545455,13.0555201 57.9848485,13.0555201 58.0496822,13.2708556 C58.1151515,13.4861911 58.0827347,13.8450836 58.3763932,13.9168621 C58.6694161,13.9886406 58.7342498,14.0604191 58.7673023,14.2039761 C58.7997191,14.3482233 59.1575758,14.3834224 59.1575758,14.3834224 L59.4188174,14.5269794 L60.2,15.2454545" id="Fill-64"></path>
                    <polyline id="Fill-65" points="56.4959091 11.7787727 56.2909091 11.7272727 56.2909091 11.9617727 56.5719091 11.9872727 56.4959091 11.7787727"></polyline>
                    <path d="M56.3883974,10.186896 C55.9962028,9.84214296 56.9140115,10.4526785 56.9140115,10.4526785 C57.2145718,10.4526785 57.4029719,10.7176119 57.4029719,10.8500785 C57.4029719,10.9825452 57.8156925,10.9383897 57.8156925,10.9383897 L57.8545455,10.6293007 L57.553252,10.186896 L57.2908115,9.96696733 C57.2908115,9.96696733 56.8773578,9.92281177 56.8773578,9.79034509 C56.8773578,9.65787841 56.5386776,10.3202118 56.3883974,10.186896" id="Fill-66"></path>
                    <path d="M62.9881879,10.3560975 C62.8843124,10.675128 62.8452719,11.1217709 62.6668012,11.1217709 C62.4883304,11.1217709 62.5594398,11.5964603 62.5594398,11.5964603 C62.5594398,11.5964603 63.0251369,11.5964603 63.1673558,11.6329209 C63.3102718,11.6686804 63.3102718,12.0332868 63.3102718,12.0332868 C63.8463812,11.9975273 64.0611038,12.7267401 63.9892973,12.9090432 C63.9174907,13.0913464 64.2033227,13.0913464 64.2033227,13.0913464 C64.2033227,13.0913464 64.2033227,13.6754178 64.1315161,13.8205592 C64.0611038,13.9671029 64.5965161,14.0764848 64.7394321,14.2952486 C64.8823481,14.5140125 64.6676255,15.2432252 64.5609614,15.2796858 C64.4536001,15.3168476 64.8460963,15.4255284 64.8105415,15.6078316 C64.7742897,15.7908359 64.9179029,15.6078316 64.9534576,15.9002178 C64.9890123,16.1919029 65.0608189,16.8117338 65.0608189,16.8117338 L65.5606764,16.8481944 C65.632483,16.3742061 66.5541171,16.3559758 66.7047018,16.4106668 C67.3119206,16.6294306 67.7769205,17.5781083 67.7769205,17.796171 C67.7769205,18.0149348 67.3837272,18.0520966 67.3837272,18.0520966 L67.4555338,19.1094551 C68.0620554,19.2917583 68.5626101,20.1675147 68.4915007,20.3133573 C68.4196941,20.4591998 68.9195516,20.4227392 68.9195516,20.4227392 C68.9913582,19.7657466 69.598577,19.9852115 69.6341317,20.2039754 C69.6710807,20.4227392 69.7770477,20.8974286 69.7770477,20.8974286 L69.9562156,21.2248732 L70.206493,21.4800977 L70.5989892,21.443637 L70.7063505,21.663102 L71.1706533,21.7360233 C71.1706533,21.7360233 71.5645438,22.1735509 71.6000985,22.2829329 C71.6363504,22.3923148 72.1717626,22.3558541 72.3146786,22.3923148 C72.4568975,22.4287754 72.6716201,22.5381573 72.7071748,22.7204605 C72.7434267,22.9034649 72.9581493,23.19515 72.9581493,23.19515 C72.9581493,23.19515 73.3862003,23.3045319 73.4224521,23.4503744 C73.4580068,23.5955158 73.6371747,23.9243627 73.6371747,23.9243627 L73.9934191,24.2160478 L74.0296709,24.5448947 L74.4228643,24.5813553 L74.5302256,25.0181818 L75.172302,24.9824223 L75.5306378,24.7271979 C75.9949406,24.4719734 76.3170245,24.1431265 76.3525792,23.997284 C76.388134,23.8514414 76.4592434,23.3045319 76.816882,23.4139138 C77.1738235,23.5232957 76.9242433,22.6110786 76.9242433,22.6110786 C76.9242433,22.6110786 76.4243858,22.2464722 76.4592434,22.064169 C76.4954953,21.8818658 75.9593859,21.5172595 75.9949406,21.3714169 C76.0304953,21.2248732 75.5306378,20.9338893 75.5661925,20.7873456 C75.6017472,20.641503 75.3159152,20.240436 75.3159152,20.240436 L74.7798058,19.7299871 L74.7079992,19.4011402 L74.2799483,19.3653807 L73.4224521,18.3073211 L73.4580068,18.015636 L73.2077295,17.9791753 L73.2077295,17.5781083 L72.9581493,17.4315646 L72.5642588,17.395104 L71.7785693,16.5200487 L71.7074598,16.1189817 L71.3142665,16.1189817 L71.3853759,15.3526071 C71.6356532,15.0244614 71.4927372,14.4046305 71.4927372,14.4046305 C71.4927372,14.4046305 70.9921825,14.659855 70.7426024,14.5504731 C70.492325,14.4410912 70.8492665,14.1851655 70.8492665,14.1851655 L70.8492665,13.8941816 L70.635241,13.6754178 C70.635241,13.6754178 70.0273251,13.7483391 69.9917704,13.6389572 C69.9562156,13.5295752 69.8495515,13.0548858 69.8495515,13.0548858 L69.8132996,12.435055 L69.5637194,12.325673 L69.5274676,12.1069092 L69.1349713,12.1433699 L69.1349713,11.7058422 L68.9202487,11.6329209 L68.7055261,11.523539 L68.6699714,11.0853102 L67.8842818,11.0495507 L67.6340045,10.6842432 L67.3481724,10.2467156 L66.4551216,10.1737943 L66.240399,9.95503046 L65.8834575,9.88210918 L65.6331801,9.77272727 L65.5258188,9.95503046 L64.8467934,9.9914911 L64.8112387,10.2102549 C64.4542972,10.3925581 63.0251369,10.2467156 62.9881879,10.3560975" id="Fill-67"></path>
                    <path d="M66.8482511,9.79778971 C66.7946569,9.50592234 67.5271105,9.24252984 67.6964945,9.46463379 C67.8658785,9.68673773 68.3409477,9.72446693 68.4084367,10.8349867 C68.4322563,11.2329229 67.7977279,10.4277961 67.7977279,10.4277961 L67.2889142,10.2427095 C67.0176351,10.1679629 66.8819956,9.9835882 66.8482511,9.79778971" id="Fill-68"></path>
                    <polyline id="Fill-69" points="56.4309091 9.67931818 56.2909091 9.61581818 56.3939091 9.38181818 56.5339091 9.44481818 56.4309091 9.67931818"></polyline>
                    <path d="M54.1999099,6.60795909 L53.7966733,6.06641049 L53.7966733,5.60817706 L53.6729256,5.44074561 L53.5497815,4.85753943 L53.1471486,4.69090909 L52.7451194,4.89919701 L52.3117004,5.27411528 L51.8480991,5.35823155 L51.6,5.73314981 L52.5905856,5.85732146 L52.7759054,6.27469842 L53.4882095,6.35801358 L53.9518108,6.98287735 C54.3544437,7.14950769 54.4474054,6.89956219 54.1999099,6.60795909" id="Fill-70"></path>
                    <path d="M54.2207153,4.50268101 C54.1424008,4.19947439 53.6877608,4.88218688 54.1500243,5.02018902 C54.6122878,5.15885463 55.0731653,5.02018902 55.0731653,5.02018902 L55.1798948,4.81318582 L56.9554857,4.84768635 C57.0982537,4.70968421 57.1689447,4.50268101 57.1689447,4.50268101 C57.1689447,4.50268101 57.5951697,4.36467887 57.7725902,4.43367994 C57.9507037,4.50268101 57.8086287,3.95067245 57.6305152,4.01967352 C57.4530947,4.08867459 57.0982537,4.05417406 57.0982537,4.05417406 L56.4585697,4.05417406 C56.4232242,3.81267032 55.8549243,3.91550845 55.8195788,4.05417406 C55.7835402,4.1921762 55.5707743,4.22667673 55.5707743,4.22667673 L54.7536698,4.2956778 C54.6822858,4.50268101 54.2567538,4.64068314 54.2207153,4.50268101" id="Fill-71"></path>
                    <path d="M50.6626822,10.8588094 C51.1089301,11.0388045 51.2720257,10.9056081 51.3014736,10.7558521 C51.3303551,10.6053762 51.3592366,10.5679372 51.5336584,10.5312182 C51.7075138,10.4930592 51.5042105,10.0437913 51.3303551,10.0812303 C51.1559333,10.1186693 50.9820779,10.0063523 50.9531963,9.81915735 C50.9231822,9.63196239 50.6332343,9.14525549 50.6043528,9.51964541 C50.5754713,9.89475532 50.4016158,9.89475532 50.4304973,10.1568283 C50.4593789,10.4181812 50.5465898,10.8112907 50.6626822,10.8588094" id="Fill-72"></path>
                    <path d="M46.1278301,11.0169408 C46.1059866,10.9319029 46.7329543,10.9212731 46.8238705,10.9929084 C46.9147868,11.0650058 46.8539792,11.1851681 47.1261375,11.1851681 C47.3982958,11.1851681 47.2772709,11.329825 47.2471623,11.4019224 C47.2170537,11.4740198 46.9147868,11.4499873 46.8840878,11.37789 C46.8539792,11.3057926 46.399398,11.2812979 46.399398,11.2812979 C46.399398,11.2812979 46.1579387,11.1371032 46.1278301,11.0169408" id="Fill-73"></path>
                    <polyline id="Fill-74" points="58.0764582 3.68218182 57.9552883 3.54968182 57.8545455 3.66018182 58.0202836 3.84218182 58.0662446 3.89168182 58.1154554 3.84818182 58.3545455 3.63968182 58.2649447 3.51818182 58.0764582 3.68218182"></polyline>
                    <polyline id="Fill-75" points="56.3620866 2.39695455 56.2909091 2.52945455 56.4714891 2.65895455 56.5061991 2.68545455 56.5426666 2.65895455 56.7909091 2.47695455 56.7188529 2.34545455 56.5061991 2.50095455 56.3620866 2.39695455"></polyline>
                    <polyline id="Fill-76" points="55.3851435 9.79972727 55.1334227 9.77272727 55.1181818 9.92822727 55.3340127 9.95022727 55.4908465 10.2042273 55.6181818 10.1207273 55.442174 9.83522727 55.4220166 9.80322727 55.3851435 9.79972727"></polyline>
                    <path d="M43.7833208,20.3272727 L43.8093208,20.6132727 L44.1933208,20.6132727 C44.3473208,20.6132727 44.0653208,20.4312727 44.0653208,20.4312727 C44.0653208,20.4312727 43.7578208,20.4572727 43.7833208,20.3272727" id="Fill-77"></path>
                    <polyline id="Fill-78" points="44.5636364 20.4477727 44.6616364 20.3272727 44.8156364 20.4567727 44.7176364 20.5772727 44.5636364 20.4477727"></polyline>
                    <polyline id="Fill-79" points="37.9181818 13.4014091 38.0271818 13.2909091 38.1806818 13.4469091 38.0721818 13.5574091 37.9181818 13.4014091"></polyline>
                    <polyline id="Fill-80" points="48.1503182 60.9818182 48.0818182 61.1218182 48.2423182 61.2023182 48.1893182 61.2563182 48.2988182 61.3668182 48.4273182 61.2368182 48.5018182 61.1608182 48.4063182 61.1118182 48.1503182 60.9818182"></polyline>
                    <polyline id="Fill-81" points="45.1850455 57.8545455 45.0305455 57.9845455 44.9545455 58.0495455 45.0350455 58.1080455 45.2150455 58.2380455 45.3045455 58.1120455 45.2055455 58.0395455 45.2830455 57.9745455 45.1850455 57.8545455"></polyline>
                    <path d="M72.1762727,51.0106818 C72.1422727,50.8781818 71.9927727,50.8236818 71.9757727,50.8181818 L71.9272727,50.9661818 L71.9272727,50.9656818 C71.9392727,50.9701818 71.9572727,50.9796818 71.9747727,50.9911818 L72.0062727,51.1261818 C71.9947727,51.1431818 71.9822727,51.1591818 71.9722727,51.1711818 L72.0852727,51.2766818 C72.1672727,51.1851818 72.1977727,51.0961818 72.1762727,51.0106818" id="Fill-82"></path>
                    <polyline id="Fill-83" points="71.9272727 50.6617727 71.9467727 50.4272727 72.1967727 50.4667727 72.1777727 50.6797727 71.9272727 50.6617727"></polyline>
                    <path d="M81.0131613,47.3873941 C81.1226613,47.3178941 81.2626613,47.1918941 81.2436613,47.4848941 C81.2241613,47.7773941 81.1091613,47.6803941 81.0131613,47.7773941 C80.9171613,47.8748941 80.8591613,47.4848941 81.0131613,47.3873941" id="Fill-84"></path>
                    <path d="M82.6628182,45.9353636 C82.6608182,45.9303636 82.6593182,45.9123636 82.6583182,45.8988636 C82.6548182,45.8563636 82.6493182,45.7978636 82.6188182,45.7363636 L82.4818182,45.8058636 C82.4988182,45.8408636 82.5018182,45.8773636 82.5048182,45.9128636 C82.5088182,45.9583636 82.5138182,46.0103636 82.5573182,46.0433636 C82.5848182,46.0643636 82.6198182,46.0703636 82.6613182,46.0623636 L82.6318182,45.9113636 C82.6438182,45.9133636 82.6593182,45.9243636 82.6628182,45.9353636" id="Fill-85"></path>
                    <path d="M82.4818182,46.1657727 C82.5208182,46.3237727 82.5778182,46.4797727 82.5803182,46.4862727 L82.7243182,46.4312727 C82.7233182,46.4297727 82.6673182,46.2772727 82.6308182,46.1272727 L82.4818182,46.1657727" id="Fill-86"></path>
                    <path d="M81.4650591,46.9245909 L81.3115591,46.9090909 C81.2995591,47.0320909 81.3290591,47.1835909 81.4500591,47.2080909 L81.4800591,47.0550909 C81.4810591,47.0550909 81.4825591,47.0560909 81.4830591,47.0560909 C81.4705591,47.0450909 81.4590591,46.9825909 81.4650591,46.9245909" id="Fill-87"></path>
                    <path d="M80.6198636,42.7334672 C80.6118636,42.6834672 80.5818636,42.6449672 80.5358636,42.6244672 C80.4218636,42.5744672 80.2303636,42.6569672 80.1363636,42.7209672 L80.2213636,42.8504672 C80.3188636,42.7844672 80.4463636,42.7529672 80.4748636,42.7674672 C80.4723636,42.7664672 80.4688636,42.7619672 80.4678636,42.7589672 L80.6198636,42.7334672" id="Fill-88"></path>
                    <path d="M70.4192057,31.0801399 C70.2764564,31.2272086 69.9531712,31.300743 69.9531712,31.300743 L69.8454094,31.7058891 L69.6669728,31.8529578 C69.6669728,31.8529578 69.7019604,31.9625523 69.6669728,32.2206296 C69.6305857,32.4779999 69.3080002,32.6250687 69.3080002,32.6250687 L69.1645511,32.8089046 C69.1645511,32.8089046 68.2996582,32.8562777 68.1960949,32.8089046 C67.8735094,32.6618358 68.0890329,32.2206296 68.3038567,32.2573968 C68.5186804,32.294164 68.2674696,31.6316476 68.2674696,31.6316476 L68.5550675,31.5948805 C68.5550675,31.5948805 68.5907548,30.9330711 68.6985166,30.9330711 C68.8055786,30.9330711 68.6628292,30.712468 68.5186804,30.6021665 C68.3752313,30.4918649 68.1960949,30.1241931 68.0519461,30.1609603 C67.908497,30.1970204 67.3347007,30.1609603 67.3347007,30.1609603 L67.226939,30.3815634 L66.8322791,30.4550978 C66.8322791,30.4550978 66.8665669,30.7393364 66.7972915,30.8227696 C66.581768,31.0801399 65.7574606,31.6316476 66.1150337,30.712468 L66.2227954,30.4918649 L66.2227954,30.1609603 L65.5776245,30.1249002 C65.5776245,30.1249002 65.255039,30.0138916 65.255039,29.8668228 C65.255039,29.7197541 65.2186519,29.5359182 65.2186519,29.5359182 L64.4657192,28.6902729 L63.5693374,28.5799714 L63.497263,28.3954284 L62.9598537,28.321894 C62.313983,27.9916964 61.739487,28.2851269 61.8472487,28.8373417 C61.9550105,29.3895565 62.1341469,29.6094525 61.775874,29.6094525 C61.4169015,29.6094525 61.3455268,29.3153151 61.3455268,29.3153151 C61.3455268,29.3153151 61.0586287,29.2050135 61.0586287,29.3520822 C61.0586287,29.499151 60.9508669,29.7932885 61.0586287,29.9403572 C61.1656907,30.0874259 60.9144798,30.308029 60.8074178,30.1977275 C60.7003558,30.0874259 60.4134577,29.7572283 60.4848323,29.6469268 C60.556207,29.5359182 59.9824107,28.8373417 60.556207,28.7270401 C61.1307031,28.6167386 60.5205197,28.2851269 60.7360432,28.2122996 L61.0229413,28.0652308 L61.3091397,28.0652308 L61.4889759,27.917455 L61.0229413,27.8446277 L60.7360432,27.8071535 L60.1979342,27.7703863 C59.6598252,28.1387652 59.5527632,28.5799714 59.5527632,28.5799714 C59.2651653,29.1314791 58.584307,28.3593683 58.8355178,28.0652308 C59.0860289,27.7703863 58.046198,28.0284636 57.8670616,28.1755324 C57.6872255,28.3226011 57.1491165,28.2490667 57.1491165,28.2490667 C57.0420545,28.5799714 56.5396329,28.2122996 56.6830819,27.9916964 C56.826531,27.7710933 56.826531,27.6240246 56.826531,27.6240246 L56.6473946,27.5865504 L56.4325709,27.9916964 C55.9301492,27.9916964 55.7867001,28.2851269 55.8937621,28.4696698 C56.0015239,28.6527987 55.7503131,28.4329027 55.6789384,28.6902729 C55.6075637,28.9476432 55.7146257,28.9476432 55.9301492,29.0579448 C56.1456727,29.1682463 55.8223875,29.1682463 55.9658366,29.3520822 C56.1092856,29.5359182 56.5396329,29.3520822 56.2891218,29.6094525 C56.037911,29.8668228 55.5354893,29.7572283 55.5354893,29.7572283 C55.499802,30.0874259 54.8182439,30.0145986 54.7468693,29.9042971 C54.6747949,29.7932885 54.1373856,29.1314791 54.1373856,29.1314791 L53.4551278,29.094712 C53.3837532,28.5799714 53.7777133,28.8373417 53.9211624,28.4329027 C54.0653112,28.0277566 54.1373856,27.3666543 54.1373856,27.3666543 C54.1373856,27.3666543 53.5628896,27.3298871 53.5272022,27.513016 C53.4915149,27.697559 53.1325423,27.8078605 53.1325423,27.8078605 C53.1325423,27.8078605 52.8456442,27.917455 52.9534059,28.0652308 C53.0604679,28.2122996 52.7378824,28.2851269 52.7378824,28.2851269 C52.7378824,28.2851269 52.7938626,28.5226994 52.7021951,28.6167386 C52.415297,28.910876 51.6980516,28.6527987 51.5902898,28.5432042 L51.1599426,28.3593683 L50.7295954,28.0652308 L50.2271737,28.2851269 L50.0844244,28.4329027 L49.5456157,28.4329027 L49.5106281,28.8734018 L50.4783845,28.9837033 L50.550459,29.8936911 L50.1557991,29.7565213 L49.9045882,29.7565213 L49.7968265,29.5359182 L49.5820028,29.4984439 L49.5820028,30.308029 L49.7968265,30.4918649 L49.9766627,30.6757009 L50.3356352,30.712468 L50.4070099,31.1536742 L51.3033917,31.1904414 L51.4111534,31.3742774 L51.9492624,31.4110445 L52.989793,32.4772929 L52.9177186,32.8089046 L52.7378824,32.9192061 C52.8099569,33.1765764 52.2725476,33.0295077 52.2725476,33.0295077 L52.2725476,33.2501108 L52.5230587,33.286878 L52.7742695,33.4339467 L53.1325423,32.8089046 C53.5272022,32.5515343 53.7063387,32.9192061 53.7427257,33.1398092 C53.7784131,33.3604123 53.5628896,33.3236452 53.5628896,33.3236452 L53.5628896,33.8390928 L53.7784131,33.9119201 C54.1373856,34.3531263 53.634964,34.6112036 53.634964,34.6112036 L53.5272022,34.9788755 C53.4194405,35.3097801 53.0247806,35.2362458 53.0247806,35.2362458 L52.8820313,35.4568489 L52.4509843,35.5671504 L53.302582,35.677452 C53.3837532,35.3833145 53.5978772,35.3097801 53.7056389,35.4568489 C53.8134006,35.6039176 53.8134006,35.8612879 53.8134006,35.8612879 L54.0296239,35.8980551 L53.9932368,36.3024941 L54.2087603,36.3767355 L54.2087603,37.5532854 L54.4592714,37.8474229 C54.8903183,37.664294 54.8903183,37.9584315 54.6747949,38.1047932 C54.4592714,38.2518619 54.6027204,38.9143783 54.6027204,38.9143783 L54.423584,39.0975071 L54.423584,39.3923516 L54.2080605,39.5394204 L54.2080605,39.9438594 C53.8497877,39.7600235 53.4187407,39.8328508 53.310979,39.9438594 C52.9890933,39.7225492 52.3075352,39.7967907 52.3075352,39.9806266 C52.522359,40.2747641 52.0570241,40.3490055 52.0570241,40.3490055 L51.8051136,40.643143 C51.9849497,41.0108148 51.6259772,41.047582 51.6259772,41.047582 L51.6259772,41.7461585 L51.1956299,42.1505975 L51.232017,43.1072513 C51.232017,43.3646216 51.7694262,43.4013888 51.8764882,43.2543201 C51.98425,43.1072513 52.415297,43.5484575 52.415297,43.5484575 L52.7371827,43.5484575 L52.8099569,42.8866482 L52.5944334,42.7756396 L52.5944334,41.7093913 L52.9527062,41.3042452 C53.3837532,41.1571765 53.2403041,42.2616061 53.2403041,42.3719077 C53.2759914,42.7763467 53.4544281,42.7395795 53.6342642,42.6653381 C53.9932368,42.5182693 53.7056389,43.0704841 53.4194405,43.033717 C53.1325423,42.9969498 53.3116788,43.4013888 53.3116788,43.4013888 L53.4915149,43.4749232 L53.1682297,43.7322935 L52.8820313,44.0639052 L52.522359,43.9528966 L52.0927115,43.9168364 L51.9492624,43.6587591 L51.6973518,43.6219919 L51.6616645,44.1367325 L51.4825281,44.3573356 L51.0521809,44.7992488 C51.6259772,44.7992488 50.9801064,45.2029808 50.8366574,45.2029808 C51.1592428,45.3132824 50.80097,45.6448941 49.9766627,45.3875238 L49.9766627,45.6448941 L49.6890647,45.6816613 L49.9409753,45.9757987 L50.2271737,46.0125659 L50.119412,46.637608 C50.119412,47.1155814 48.936132,46.7846768 48.8283703,46.6743752 L48.792683,47.3368916 L48.5771595,47.3729517 L48.6128468,47.814865 L48.5771595,48.4399071 L48.9718194,48.3663727 L48.9718194,48.623743 L49.9402756,48.6612173 L51.339079,47.1523486 L52.1640861,46.9692197 C52.2354608,46.6008408 52.5937336,47.0427541 52.5937336,47.0427541 C52.9527062,47.0052799 53.0247806,47.2626502 53.0247806,47.2626502 L53.4908152,47.3368916 C53.8847753,47.4471931 53.6468598,47.4860815 53.6699516,47.631029 C53.7056389,47.8516322 53.8847753,47.7780978 53.8847753,47.7780978 L53.9575495,47.3001244 L54.1723732,47.3368916 L53.9575495,47.0788142 L53.5621898,46.8949783 L53.1318426,46.7111424 C52.8449444,46.3067034 53.203917,46.3802377 53.4908152,46.417712 L53.9568497,46.417712 C53.9568497,46.417712 54.4956584,47.1523486 54.4956584,47.3368916 C54.4956584,47.5207275 54.7468693,47.5574947 54.7468693,47.5574947 L55.068755,47.5207275 L55.1765168,47.7780978 L55.4991022,47.7780978 L55.606864,47.9979938 L56.2527347,47.9979938 L56.288422,47.6670892 L55.6782386,47.5574947 L55.6425513,47.1891158 L55.2129038,47.0788142 C55.068755,46.4544792 55.3199658,46.2699362 55.4991022,46.5647807 L55.7146257,46.6008408 L55.6425513,46.048626 L55.8930624,45.9750917 L55.8216877,45.2029808 L55.606864,45.1294464 L55.606864,44.8720761 L56.5032458,44.9095504 C56.4318711,44.4308699 56.5396329,44.2102668 56.5396329,44.2102668 L56.7901439,44.2102668 L56.8258313,44.3948098 L57.9230418,44.4987478 L58.6990663,43.600073 C58.6598802,43.530781 58.7774385,43.4890644 58.6920688,43.4006817 C58.584307,43.2903802 58.4401582,43.4006817 58.260322,43.2903802 C58.0811856,43.1807857 58.260322,42.5550365 58.2246347,42.4079678 C58.1889474,42.260899 58.8348181,42.0395889 58.7277561,42.3712006 C58.6199943,42.7028123 58.7277561,42.849881 58.7277561,42.849881 C59.1937907,42.4079678 59.5884506,42.8859412 59.5527632,42.9969498 C59.5156764,43.1072513 59.8032743,43.2175529 59.9824107,43.1072513 C60.1615471,42.9969498 60.3770706,43.438156 60.3049962,43.658052 C60.2329218,43.8793622 59.5884506,43.842595 59.5527632,43.6219919 C59.5156764,43.4006817 59.4079146,43.4749232 59.3372397,43.5852247 C59.2651653,43.6955263 58.9425798,43.7690606 58.7627437,43.658052 C58.7270563,43.6361331 58.7095626,43.6177495 58.6990663,43.600073 L57.9230418,44.4987478 L57.9734239,44.5044043 C58.4037711,44.7617746 58.1889474,45.0926792 58.046198,45.1662136 C57.9020492,45.239748 57.6508384,45.239748 57.6508384,45.239748 L57.5794637,45.3875238 L56.6466949,45.4603511 L56.5746204,45.82873 C56.1085859,45.7544886 55.9294495,46.2699362 56.0372112,46.5273065 C56.144973,46.7839697 56.0372112,47.0052799 56.0372112,47.0052799 L56.4318711,47.1891158 L56.933593,47.0427541 C57.0056674,46.6743752 57.3275532,46.6008408 57.6151511,46.3802377 C57.9013495,46.1596346 58.3687835,46.7839697 58.2246347,47.0788142 C58.0811856,47.3729517 58.0811856,47.4832533 58.0811856,47.4832533 L58.116873,47.814865 L57.7586001,47.9612266 L57.471702,48.1090024 L57.4353149,48.2928384 L56.4668587,48.2928384 L56.288422,48.4766743 L55.8216877,48.5141485 L55.6775389,48.7340446 L55.3556532,48.7715188 C55.3556532,48.7715188 54.8168444,49.0288891 55.0323679,49.3230266 C55.2478914,49.617164 54.1359861,49.5803968 53.8847753,49.1759578 C53.8127009,49.5429226 53.418041,49.212725 53.418041,49.212725 L53.0240808,49.1017164 L52.9883935,48.5509157 C52.9163191,48.1825368 52.234761,48.1825368 52.2711481,48.4406142 C52.3068355,48.6979844 50.9794067,48.5509157 50.9794067,48.5509157 L50.5490595,48.7616199 L50.1543996,48.9921219 L50.1187122,49.1759578 L49.4728415,49.2494922 L49.1859433,49.3965609 L49.0788814,49.1759578 L48.7919832,49.1759578 L48.505085,49.5803968 C47.7521523,49.6178711 47.0349069,50.0590773 47.1062816,50.2429132 C47.1776563,50.4267491 46.8193835,50.6112921 46.8193835,50.6112921 L46.496798,50.7201795 L46.2819742,51.0517913 L45.8509272,51.19886 L45.7788528,51.9716779 L45.5647288,52.1187466 L45.5647288,52.4496513 L45.3128183,52.5231857 L45.3128183,52.7070216 L44.9545455,52.7437888 L45.1693692,53.2960036 L45.4569671,53.4430723 C45.958689,53.5158996 45.7431655,54.1423559 45.7431655,54.1423559 L46.0300637,54.178416 L46.1742125,54.582855 L46.4604109,55.17113 C46.5681726,55.6130432 46.8914579,55.5027417 47.0349069,55.4659745 C47.1776563,55.4299144 47.3211053,55.9071807 47.3211053,55.9071807 L48.7555961,55.9439479 C48.7555961,55.9439479 48.6842215,56.0910166 48.9354323,56.164551 C49.1859433,56.2380853 50.8359576,56.3123268 50.908032,56.2020252 C50.8359576,55.8704135 51.8044138,55.7968791 52.1990737,56.0910166 C52.5930339,56.3851541 53.1318426,56.2020252 53.1318426,56.2020252 L53.6692518,56.8631275 L54.0289241,57.6727126 L54.6384078,57.8558414 L55.0680553,57.96685 L55.2122041,58.5918922 L55.5340898,58.6286594 L55.6425513,59.0338054 C56.0372112,59.3279429 55.5340898,59.952985 55.5340898,59.952985 L55.5340898,60.7618631 L55.8216877,60.9096389 L55.7853006,61.2037763 L56.252035,61.6817497 L56.7901439,61.719224 L58.15326,63.1899113 L59.2287782,63.520816 L59.4079146,64.1090909 L59.6955126,64.0723237 L59.9103363,63.8884878 L60.7710308,63.8517206 L61.201378,63.4472816 L61.6674125,63.3737472 L65.6489991,59.952985 L65.2893268,59.7323819 L65.2893268,58.9235039 C65.9351975,58.4455305 65.9708849,57.5991782 65.3614012,57.5256438 C64.8988654,57.469786 65.1108901,56.973429 65.5412374,56.8998947 L65.7917484,56.7903002 L65.7917484,56.4586884 L66.6167556,55.6872847 L66.6167556,55.0983027 L64.823992,53.5901411 C64.0346722,53.2960036 64.823992,51.5304717 65.3614012,51.5672389 C65.8995102,51.603299 65.3257139,48.8457602 65.3257139,48.8457602 L65.0388157,48.6986915 L65.1108901,47.815572 L64.7162302,47.815572 L64.0703595,48.6619243 L63.8919229,49.2501993 C63.8198485,50.0230172 61.5960379,49.8752414 61.4882761,49.7649398 C61.3805144,49.6546383 60.6275817,49.3237336 60.6275817,49.3237336 C60.6275817,49.3237336 60.0537854,48.8457602 59.9460236,48.992829 C59.8382619,49.1398977 59.33654,48.808286 59.33654,48.9192946 C59.33654,49.0295962 58.8705054,48.6619243 58.8705054,48.6619243 L58.15326,48.404554 L58.691369,48.2935454 L58.5836073,47.8523392 L59.5156764,48.3310197 C59.6234381,48.4773813 60.0894727,48.4413212 60.0894727,48.4413212 L60.2329218,48.6251571 C60.2329218,48.6251571 60.5205197,48.5876829 60.7003558,48.8089931 C60.8787925,49.0295962 61.8115614,48.8457602 61.8115614,48.8457602 L62.0620724,49.0663633 L62.4567323,49.2134321 L63.5686376,49.2501993 L63.604325,48.5523298 L63.8198485,48.3310197 L63.7841611,47.8891064 L64.0346722,47.6692104 L64.0346722,47.3015385 L64.2501957,47.2280042 L64.285883,46.4191261 L64.4650194,46.3823589 L64.4650194,44.61612 L63.9269104,44.1013794 C63.8912231,44.2852153 63.3174268,44.2852153 63.3174268,44.2852153 C63.3174268,44.2852153 63.1739777,44.5425856 63.0669157,44.5425856 C62.959154,44.5425856 63.2103648,44.8734903 63.1382904,45.0940934 C63.0669157,45.3146965 62.7793178,45.3146965 62.7793178,45.3146965 L62.2412089,45.4624723 L62.0977598,45.6463082 L61.5239635,45.6463082 L61.4525888,45.1683348 L62.0977598,44.9837918 L62.4560326,44.800663 L62.6358688,44.4322841 C62.6715561,44.0646122 63.1019033,44.1013794 63.1019033,44.1013794 C63.1019033,44.1013794 63.9269104,43.4020959 63.9625978,43.0718983 C63.9989849,42.7409936 64.285883,41.821107 64.7876049,41.821107 L65.7203738,41.821107 C66.0786466,41.6733312 65.9715846,41.1953578 65.9715846,41.1953578 L66.4376192,41.1225305 L66.5096936,41.3799008 C66.5096936,41.3799008 67.1555643,41.4534351 67.226939,41.3431336 C67.2990134,41.232832 67.4417627,40.9754617 67.6215989,41.0857633 C67.8007353,41.1960648 68.3745316,40.828393 68.3745316,40.828393 C68.4102189,40.5703157 69.3073005,40.6813243 69.3073005,40.6813243 L69.4150622,40.3504196 C69.4150622,40.3504196 68.8055786,39.5040673 68.6978168,39.5040673 C68.5900551,39.5040673 68.0162588,38.9886197 67.9441843,39.1731627 C67.3710878,39.0260939 67.4067751,38.2165088 67.4067751,38.2165088 L67.1912516,37.7017683 C67.1912516,37.4076308 66.6538424,36.7818816 66.5453809,36.856123 C66.0072719,36.451684 66.4019318,35.9730036 66.5453809,35.9362364 C66.68883,35.9001763 67.0478026,35.3847286 67.0478026,35.3847286 L67.226939,34.8699881 L67.8364226,34.6861521 L67.908497,34.2081787 L67.5866113,34.1714116 C67.5866113,34.1714116 67.9441843,33.5088952 68.1240205,33.5088952 C68.3038567,33.5088952 69.4871366,33.5088952 69.5941986,33.4353608 C69.7019604,33.3618265 69.9167841,32.7735515 69.9167841,32.66325 C69.9167841,32.5529484 70.204382,32.5154742 70.311444,32.478707 C70.4192057,32.4426469 70.6697168,32.1478023 70.7417912,32.0007336 C70.8138656,31.8529578 70.5633546,30.9330711 70.4192057,31.0801399" id="Fill-89"></path>
                    <path d="M50.5250968,44.2374656 C50.5733216,44.1958566 50.6215464,44.3639138 50.7179959,44.3428391 C50.8131929,44.3217644 50.862044,44.4909023 50.7662207,44.4909023 C50.6697711,44.4909023 50.6697711,44.5962757 50.6697711,44.6384251 C50.6697711,44.6805745 50.6697711,44.7859479 50.5971208,44.849172 C50.5250968,44.9123961 50.4524465,44.8702467 50.3559969,44.8280973 C50.2601736,44.7859479 50.2119488,44.7859479 50.0910737,44.7859479 C49.9714512,44.7859479 50.0672745,44.9545455 50.0672745,44.9545455 C50.0672745,44.9545455 49.5612274,44.9334708 49.657677,44.8702467 C49.7541265,44.807563 49.8505761,44.7859479 49.7785521,44.7432582 C49.7059018,44.7011088 49.7785521,44.6594998 49.7785521,44.575201 C49.7785521,44.4903619 50.019676,44.5330517 49.9470257,44.4692872 C49.8750016,44.4060631 49.9482783,44.1618129 50.0672745,44.3006897 L50.1399248,44.1526265 C50.0672745,44.0899428 50.1154993,44.0683277 49.9714512,44.0272591 C49.8267769,43.9845693 49.9470257,43.7316731 49.9470257,43.7316731 L49.9714512,43.5630755 C50.019676,43.3523286 50.5006712,43.3312539 50.5250968,43.5209262 C50.548896,43.7105984 50.5250968,43.8370465 50.5250968,43.8370465 L50.6697711,43.8791959 C50.6697711,43.8791959 50.6453456,44.0061844 50.5250968,44.0061844 C50.4042217,44.0061844 50.5250968,44.0688681 50.4524465,44.1320922 L50.5250968,44.2374656" id="Fill-90"></path>
                    <path d="M48.4727273,44.6230555 C48.5781361,44.4245872 48.8225754,43.5682174 49.1024539,43.8317158 C49.380515,44.0952142 49.5558934,43.8317158 49.5558934,43.8317158 C49.5558934,43.8317158 49.6958327,43.9643095 49.6258631,44.2278079 C49.5558934,44.4904618 49.4859238,44.7548047 49.3105454,44.787742 C49.1360757,44.8206793 48.9961364,44.9194912 48.7880449,44.9524285 C48.5781361,44.9853658 48.4727273,44.6230555 48.4727273,44.6230555" id="Fill-91"></path>
                </g>
            </g>
        </g>
    </g>
</svg>