<?xml version="1.0" encoding="UTF-8"?>
<svg width="124px" height="124px" viewBox="0 0 124 124" version="1.1" xmlns="http://www.w3.org/2000/svg" xmlns:xlink="http://www.w3.org/1999/xlink">
    <!-- Generator: Sketch 52.2 (67145) - http://www.bohemiancoding.com/sketch -->
    <title>UN-01</title>
    <desc>Created with Sketch.</desc>
    <g id="Page-1" stroke="none" stroke-width="1" fill="none" fill-rule="evenodd">
        <g id="Desktop-HD-Copy" transform="translate(-658.000000, -121.000000)" fill="#FFFFFE">
            <g id="UN-01" transform="translate(658.000000, 121.000000)">
                <path d="M117.812568,89.0310532 L116.46307,88.29412 C113.601795,94.1956864 109.813197,99.5652944 105.280302,104.21017 L97.3944069,96.3259603 C101.257434,92.3460327 104.372503,87.8268262 106.667624,82.9440334 L105.323008,82.2095403 C103.05473,87.0520702 100.003109,91.4578086 96.3231063,95.2535028 L89.1802885,88.1111067 C92.2465511,84.9230164 94.6795505,81.2859336 96.435361,77.3560296 L95.1029461,76.6288571 C93.3825202,80.502637 91.0105288,84.0250315 88.1114282,87.0447497 L80.2169917,79.1507793 C82.4132801,76.8252912 84.1080826,74.1484178 85.261134,71.2519285 L83.9274989,70.524756 C82.8256942,73.3492601 81.1967804,75.9126653 79.1554523,78.0880825 L71.9906717,70.9249449 C74.0319997,68.6470403 75.2155551,65.7895938 75.382717,62.7369332 L85.5246886,62.7369332 C85.4380572,65.4772513 84.8767835,68.0980006 83.9274989,70.524756 L85.261134,71.2531486 C86.3287741,68.5689547 86.9315333,65.6993073 87.0169445,62.7369332 L98.1960522,62.7369332 C98.0959991,67.6721899 96.9954146,72.3646489 95.1029461,76.6288571 L96.435361,77.3560296 C98.4681479,72.8038807 99.5919155,67.8576433 99.6907484,62.7357132 L109.813197,62.7357132 C109.707043,69.6865554 108.103753,76.2762516 105.323008,82.2095403 L106.666404,82.9440334 C109.60577,76.6910815 111.20296,69.8354062 111.307894,62.7357132 L122.487001,62.7357132 C122.374747,71.8851543 120.219944,80.5465601 116.46307,88.29412 L117.812568,89.0310532 C121.854958,80.7063917 124,71.5142475 124,61.9890192 C124,53.8888539 122.447956,46.029046 119.498829,38.7390192 L118.113947,39.3344222 C120.891032,46.2144994 122.39671,53.613114 122.489442,61.2411052 L111.309114,61.2411052 C111.218822,55.1553054 110.023065,49.253739 107.835318,43.7523615 L106.460197,44.341664 C108.571074,49.6600283 109.725346,55.3615003 109.814418,61.2411052 L99.6919686,61.2411052 C99.6053372,56.7597213 98.7317025,52.4113271 97.1540354,48.3423331 L95.7789148,48.9328558 C97.2797119,52.8151763 98.110641,56.9659162 98.1984925,61.2411052 L87.0181646,61.2411052 C86.9388542,58.5093278 86.4215063,55.8519758 85.5039458,53.3483548 L84.1288253,53.9376574 C84.971956,56.257045 85.4453782,58.7143026 85.5246886,61.2411052 L75.3839372,61.2411052 C75.2167752,58.1884446 74.0332198,55.3309981 71.9918918,53.0530935 L79.1639935,45.8838555 C81.3785842,48.2386256 83.052644,50.9740633 84.1288253,53.9388775 L85.5039458,53.3483548 C84.3521146,50.2127283 82.5706807,47.3198992 80.2182119,44.8272591 L88.1236298,36.9223079 C91.4973727,40.4337217 94.0719107,44.5100362 95.7789148,48.9328558 L97.1540354,48.3423331 C95.3726015,43.7487012 92.6894692,39.5137752 89.1802885,35.8669317 L96.3389684,28.7074543 C100.77181,33.2791247 104.177277,38.584068 106.460197,44.341664 L107.835318,43.7523615 C105.476748,37.822733 101.963907,32.3591782 97.3956271,27.6532982 L105.299825,19.7471269 C110.889379,25.4742207 115.201425,32.1188208 118.113947,39.3344222 L119.498829,38.7390192 C116.421585,31.1256691 111.822801,24.1321237 105.840356,18.1512516 C99.8359475,12.1459776 92.8114852,7.53648457 85.1647413,4.45942223 L84.6132289,5.86130353 C91.8451184,8.77487406 98.5059729,13.091546 104.243166,18.6917506 L96.3389684,26.5967018 C91.7109008,22.1128778 86.3495169,18.6368467 80.5293527,16.2808564 L79.9839411,17.6717569 C85.6125401,19.9545419 90.7994411,23.3171048 95.2823096,27.664279 L88.1248499,34.8225362 C84.6449531,31.4746143 80.6330663,28.8758265 76.2831952,27.0957179 L75.7365635,28.4866184 C79.8985299,30.1910815 83.7371539,32.6788413 87.0681912,35.8791326 L79.1639935,43.7828637 C76.9408616,41.6867522 74.3980477,40.0420734 71.6514671,38.8951905 L71.1048354,40.286091 C73.6647315,41.3597686 76.0318422,42.8897591 78.1073347,44.83946 L70.9376734,52.0099181 C68.6584142,49.9687106 65.8020192,48.7852251 62.7479582,48.6192931 L62.7479582,38.4779203 C65.6617007,38.5682069 68.4839313,39.1867916 71.1048354,40.2873111 L71.6514671,38.8951905 C68.8585205,37.7287862 65.8508256,37.074819 62.7479582,36.9833123 L62.7479582,25.8048646 C67.2735324,25.8963712 71.6600083,26.8163177 75.7377836,28.4866184 L76.2844154,27.096938 C72.0345974,25.3583123 67.4626572,24.4029833 62.746738,24.3114767 L62.746738,14.184745 C68.7499262,14.2762516 74.5700903,15.4731581 79.9839411,17.6680967 L80.5293527,16.2771962 C74.9434594,14.0151527 68.9402712,12.7828637 62.746738,12.6913571 L62.746738,1.51046914 C70.3617578,1.60319584 77.7473875,3.10390428 84.6144491,5.86862406 L85.1647413,4.46674276 C77.8986873,1.54097135 70.0689194,0 62.0012202,0 C52.0325114,0 42.615315,2.37795183 34.2633184,6.5750551 L34.9441678,7.87810926 C43.026509,3.82863665 51.9678429,1.62271725 61.2544821,1.51046914 L61.2544821,12.6913571 C53.6809478,12.8036052 46.5234881,14.642278 40.1420503,17.810847 L40.8204593,19.111461 C47.1079448,15.9990161 54.0494362,14.2933328 61.253262,14.1835249 L61.253262,24.3065963 C55.6222227,24.4176244 50.2937831,25.7719222 45.5241769,28.0998504 L46.2074666,29.4053448 C50.8501761,27.1518419 55.9553264,25.9061319 61.2544821,25.7999843 L61.2544821,36.9796521 C57.7404208,37.0833596 54.4081633,37.9166798 51.3992482,39.3283218 L52.0861984,40.6386965 C54.931612,39.3161209 58.0369197,38.5718671 61.2544821,38.47304 L61.2544821,48.6144128 C59.6804755,48.7022591 58.1808986,49.0609651 56.7972369,49.6441672 L57.482967,50.955762 C58.8971326,50.3762201 60.4259933,50.071198 62.0012202,50.071198 C65.1858383,50.071198 68.1801114,51.3108076 70.4337473,53.5630904 C72.686163,55.8153731 73.9258457,58.8106895 73.9258457,61.9963397 C73.9258457,68.5713948 68.5778836,73.9227015 62.0012202,73.9227015 C58.8141617,73.9227015 55.8198886,72.6818719 53.5674729,70.4295891 C51.3150572,68.1760863 50.0741543,65.1819899 50.0741543,61.9963397 C50.0741543,58.8106895 51.3150572,55.8153731 53.5674729,53.5630904 C54.7071025,52.4247481 56.035857,51.5475047 57.482967,50.9545419 L56.7972369,49.6441672 C55.4221164,50.2249292 54.1653514,51.0265271 53.0684274,52.008698 L45.8938854,44.8345797 C47.7473088,43.0922938 49.8350029,41.684312 52.0849783,40.6386965 L51.3980281,39.3271017 C48.9784504,40.4630038 46.7687403,41.9722528 44.8445477,43.7865239 L36.9318088,35.8730321 C39.7064531,33.2083596 42.836164,31.0427031 46.2074666,29.4053448 L45.5241769,28.0986304 C41.9637494,29.8360359 38.7144628,32.1127204 35.8885718,34.8286366 L28.7176904,27.6593986 C32.3366855,24.1479849 36.4217818,21.2868781 40.8204593,19.1102409 L40.1408301,17.810847 C35.5371657,20.0972922 31.3312735,23.0730872 27.6768937,26.6198835 L19.7556137,18.6990712 C24.29705,14.2664909 29.4205026,10.6464893 34.9429477,7.87810926 L34.2620983,6.5750551 C22.1898333,12.6401134 12.3626631,22.5264877 6.37777734,34.6444033 L7.67724795,35.345954 C10.4677543,29.6701039 14.1587389,24.4066436 18.7001752,19.7544474 L26.6214551,27.6752598 C22.9365713,31.4721741 19.8581072,35.857171 17.5398028,40.6752991 L18.8331726,41.3744096 C21.0416626,36.7612563 24.0029914,32.4872875 27.6610316,28.715995 L34.8319131,35.885233 C31.9413536,38.8927503 29.5498396,42.3785422 27.778167,46.2071788 L29.0739771,46.9062894 C30.7443764,43.2667664 33.026076,39.8968829 35.8763702,36.9296285 L43.7891091,44.8419002 C41.7660835,46.9880353 40.1188672,49.4904361 38.9499538,52.242955 L40.2567453,52.9506061 C41.3317065,50.3676795 42.8715486,47.9799669 44.8360065,45.8899559 L52.0117686,53.0640743 C50.0412099,55.2651134 48.7905457,58.111579 48.617283,61.2484257 L38.4740913,61.2484257 C38.5643831,58.3568168 39.1732431,55.5542742 40.2567453,52.949386 L38.9499538,52.242955 C37.7676185,55.0235359 37.0757877,58.0615554 36.9806152,61.2484257 L25.8015075,61.2484257 C25.9015606,56.2167821 27.0302088,51.3596111 29.0739771,46.9062894 L27.7769468,46.2059588 C25.6502076,50.7983706 24.4141853,55.8861382 24.3092516,61.2484257 L14.1843623,61.2484257 C14.2905162,54.2573205 15.8938067,47.5126732 18.8331726,41.3731895 L17.5398028,40.674079 C14.5321079,46.9197103 12.8031409,53.890074 12.6921064,61.2484257 L1.51177848,61.2484257 C1.6215929,52.1172859 3.75443292,43.3192302 7.67602779,35.345954 L6.37777734,34.6444033 C2.30122213,42.9007399 0,52.1819506 0,61.9951196 C0,67.9979534 0.856552457,73.8641373 2.4952276,79.4692223 L3.95941983,79.1007557 C2.41957767,73.8482761 1.57888729,68.3590995 1.51177848,62.7430337 L12.6908862,62.7430337 C12.7604353,67.4257321 13.48155,72.0010627 14.8054238,76.3701984 L16.2549741,76.0041719 C14.959164,71.7546048 14.2539114,67.300063 14.1843623,62.7430337 L24.3068112,62.7430337 C24.3800209,66.455762 24.9925413,70.0782037 26.0955661,73.5249528 L27.5475567,73.1589263 C26.4725956,69.8305258 25.8747171,66.3300929 25.8015075,62.7430337 L36.9806152,62.7430337 C37.0587054,65.3979455 37.55043,67.9808722 38.4191841,70.4222686 L39.8723949,70.055022 C39.0292642,67.7344144 38.5534017,65.2734965 38.4740913,62.7430337 L48.6160628,62.7430337 C48.7832248,65.7956943 49.9667802,68.6531407 52.0081082,70.9310453 L44.8372267,78.1015035 C42.6238561,75.7479534 40.9497963,73.016176 39.8723949,70.055022 L38.4191841,70.4222686 C39.5673548,73.6396411 41.3756322,76.6093356 43.780568,79.1580998 L35.8763702,87.0618309 C32.0304253,83.0599418 29.2167359,78.316239 27.549997,73.1613665 L26.0980064,73.528613 C27.8294137,78.939704 30.7797611,83.9188838 34.823372,88.1208674 L27.6634719,95.2791247 C22.3106292,89.7594458 18.4439415,83.17463 16.2586346,76.0066121 L14.8090843,76.3714185 C17.0602798,83.796875 21.0611851,90.6208281 26.6068132,96.335721 L18.7026155,104.239452 C11.7062169,97.0714342 6.70966091,88.4685926 3.96308031,79.1031958 L2.49766792,79.4716625 C5.3796863,89.332415 10.6959243,98.3708281 18.1633047,105.835327 C23.2196485,110.892593 28.9995474,114.964027 35.26507,117.964224 L36.0069274,116.647749 C30.0769488,113.822025 24.5911086,110.012909 19.7592742,105.294828 L27.6634719,97.3923174 C31.7717513,101.379565 36.4559463,104.559115 41.5220514,106.874843 L42.2590282,105.566908 C37.3088383,103.320726 32.7320174,100.224142 28.7213508,96.335721 L35.8788105,89.1774638 C39.2342511,92.4058171 43.0862968,94.9350598 47.2580245,96.7078479 L47.9950013,95.4011335 C43.9428493,93.7015507 40.1957373,91.256494 36.9379096,88.1257478 L44.8433275,80.2220167 C47.383701,82.6182698 50.3401492,84.4227802 53.5467302,85.5708832 L54.2934682,84.2470875 C51.199142,83.1758501 48.3451873,81.4628463 45.8999862,79.1654203 L53.0708677,71.9937421 C55.3489068,74.0373898 58.2053018,75.2196552 61.2593628,75.3868073 L61.2593628,85.5281801 C58.8532069,85.4537547 56.5117194,85.014523 54.2934682,84.2483076 L53.5467302,85.5708832 C55.9968118,86.4505668 58.5908724,86.9434824 61.2593628,87.021568 L61.2593628,98.2000157 C56.6337355,98.107289 52.1508669,97.1495198 47.9986618,95.4072339 L47.261685,96.7127283 C51.6408399,98.5745828 56.371401,99.5994569 61.2593628,99.6934037 L61.2593628,109.816475 C54.5985083,109.713988 48.1646035,108.249882 42.2626887,105.571788 L41.5244918,106.880943 C47.6521363,109.679825 54.337394,111.207376 61.2593628,111.311083 L61.2593628,122.488311 C52.380257,122.380943 43.811072,120.369018 36.011808,116.653849 L35.2687304,117.969104 C43.5121327,121.914869 52.5974455,124 62.0061008,124 C71.8759766,124 81.3859052,121.694033 89.9441088,117.36394 L89.237636,115.992561 C81.255348,120.034713 72.2700884,122.371182 62.7528388,122.488311 L62.7528388,111.309863 C70.2995296,111.198835 77.5631433,109.389444 84.1276051,106.089106 L83.4296735,104.736028 C77.1909944,107.877755 70.1787338,109.700567 62.7528388,109.816475 L62.7528388,99.6934037 C68.4143821,99.5835957 73.8648377,98.2256376 78.8016059,95.7634997 L78.1073347,94.4165224 C73.463405,96.7334698 68.260642,98.0865475 62.7528388,98.1987957 L62.7528388,87.021568 C66.3584122,86.9154203 69.829768,86.0479377 72.9899829,84.5008659 L72.3005924,83.1636492 C69.3990514,84.5789515 66.1680672,85.4195923 62.7528388,85.52696 L62.7528388,75.3868073 C65.8068998,75.2196552 68.6632948,74.0373898 70.9425541,71.9937421 L78.1061146,79.1580998 C76.3905693,80.7673961 74.4358727,82.1204739 72.3005924,83.1636492 L72.9899829,84.502086 C75.2277567,83.4052267 77.3117903,81.9740633 79.1700943,80.2220167 L87.0620904,88.1135469 C84.4265444,90.6452298 81.4078681,92.7718435 78.1073347,94.4177424 L78.8003857,95.7634997 C82.1863303,94.0761178 85.3331234,91.8738586 88.1309507,89.1835642 L95.2737685,96.3247402 C91.7938716,99.6995041 87.8002873,102.538649 83.4296735,104.737248 L84.1276051,106.089106 C88.5653278,103.857565 92.6858087,100.950094 96.3450692,97.3971977 L104.229744,105.281407 C99.8310669,109.574898 94.7735028,113.191239 89.237636,115.992561 L89.9441088,117.36394 C95.7447504,114.428408 101.115896,110.57293 105.847677,105.841428 C110.82105,100.868349 114.835377,95.1924984 117.819889,89.0456943 L117.812568,89.0310532" id="Fill-6"></path>
                <polyline id="Fill-7" points="66.4043716 47.4398251 66.4145355 47.6891803 66.6239126 47.6790164 66.6123934 47.431694 66.4043716 47.4398251"></polyline>
                <polygon id="Fill-8" points="65.0491803 46.9655082 65.3269945 46.9655082 65.3269945 46.7540984 65.0491803 46.7540984"></polygon>
                <polyline id="Fill-9" points="64.6148415 46.9987104 64.6446557 46.7893333 64.4007213 46.7540984 64.3715847 46.9621202 64.6148415 46.9987104"></polyline>
                <polyline id="Fill-10" points="63.2589727 46.9987104 63.0163934 46.9634754 63.0462077 46.7540984 63.2887869 46.7893333 63.2589727 46.9987104"></polyline>
                <polygon id="Fill-11" points="60.3060109 46.9655082 60.5838251 46.9655082 60.5838251 46.7540984 60.3060109 46.7540984"></polygon>
                <polyline id="Fill-12" points="59.1927213 46.9987104 59.2225355 46.7893333 58.9799563 46.7540984 58.9508197 46.9634754 59.1927213 46.9987104"></polyline>
                <polyline id="Fill-13" points="59.2286339 47.7074754 58.9508197 47.6370055 59.0009617 47.431694 59.2794536 47.5028415 59.2286339 47.7074754"></polyline>
                <polyline id="Fill-14" points="58.3071038 47.6776612 58.273224 47.4662514 58.4785355 47.431694 58.5130929 47.6431038 58.3071038 47.6776612"></polyline>
                <polyline id="Fill-15" points="9.65980328 86.0546448 9.4863388 86.0546448 9.4863388 86.3490055 9.7648306 86.3490055 9.7648306 86.7322404 9.97420765 86.7322404 9.93829508 86.2906994 9.65980328 86.2018251 9.65980328 86.0546448"></polyline>
                <polyline id="Fill-16" points="12.8564446 90.968299 12.6163333 90.4601023 12.1967213 89.442623 13.0930591 89.8368012 13.393781 90.6273294 13.8110618 90.9118327 14.2295082 91.7588272 13.9905625 92.1530055 13.334336 91.5883424 12.8564446 90.968299"></polyline>
                <polyline id="Fill-17" points="26.9690985 109.229197 26.4262295 108.415301 27.2398726 108.552035 28.1169165 109.295611 28.4590164 110.177223 27.9835107 110.448087 27.7127366 110.043093 27.035141 109.838642 26.9690985 109.229197"></polyline>
                <path d="M60.9836066,52.1828157 L60.2902004,52.1828157 L60.1647972,50.799781 L60.5422363,50.5471112 L60.5422363,49.8555939 L58.3366148,49.8555939 L58.2739131,49.1640765 L58.5898801,48.9754809 L58.0845788,48.7868852 L57.7071397,49.2898069 L57.5817365,49.8555939 L56.951032,49.9813243 L56.951032,50.2956503 L56.5108912,50.2956503 L56.5108912,51.1128981 L54.7454104,52.5600069 L51.2169076,52.4342765 C50.9636422,53.0000634 50.3341672,52.3702023 50.3341672,52.3702023 C50.2087639,51.99422 49.327253,52.3702023 49.327253,52.3702023 C49.327253,53.0629286 48.129775,52.0570852 48.129775,52.0570852 L45.922924,50.484246 C44.6627444,49.3526722 42.7730898,50.799781 42.7103882,51.1128981 C42.7730898,51.99422 41.2608743,51.3014937 41.2608743,51.3014937 C41.2608743,51.3014937 40.0006948,50.9243025 39.8113605,51.4284331 C39.6232556,51.9313548 38.8019874,51.8056244 38.8019874,51.8056244 L38.6765841,52.0570852 L38.0458796,52.1828157 L37.9204764,52.5600069 L37.1643687,52.6857374 L39.0540233,52.6228721 C39.5580951,52.5600069 38.864689,53.6927897 38.5499515,53.6299245 L37.6684405,53.6927897 L37.3524735,54.0059068 L36.5336642,54.0059068 L36.156225,54.5100375 L34.9587471,54.4471722 C34.9587471,54.4471722 34.2653409,55.0129592 34.329272,55.2015548 C34.3919736,55.3901504 34.2026393,55.9559373 34.013305,55.9559373 C33.8239707,55.9559373 33.4465316,56.5217242 33.5719348,56.7103199 C33.6997969,56.8989155 33.1944957,57.5287766 33.1944957,57.5287766 L33.0690924,58.1574287 L32.6916533,58.2831591 L32.6916533,59.9817288 L31.9343161,60.4846505 L31.9343161,61.2390331 L30.7995398,62.4334721 L30.9261725,63.4393155 L29.9819599,64.4463678 L30.1061337,65.4522112 L29.5393602,65.6408069 L29.413957,66.0808633 L29.1619211,67.4010328 L29.7926256,67.465107 C30.1061337,67.3381676 30.0446615,68.2823547 29.7926256,68.4068762 C29.5393602,68.5338156 28.8459541,68.7852764 29.2246227,69.0355283 C29.6032913,69.2881981 28.216479,69.2253329 28.216479,68.8481416 C28.216479,68.4709504 27.4603713,68.1566243 27.2722664,68.2823547 C27.0829322,68.4068762 26.7669652,67.7165678 26.7669652,67.7165678 C26.0735591,67.0250505 23.9318685,67.7782241 23.9318685,67.7782241 L23.6159016,68.7852764 C22.9237249,68.9110068 22.4823547,70.0425807 22.4823547,70.0425807 C21.9143518,70.2323852 21.474211,70.9226936 21.6635453,71.1124982 C21.8516502,71.3010939 21.3475783,71.3627501 21.3475783,71.3627501 L21.3475783,72.7469937 L21.0328408,73.1870502 L21.0955424,74.6958153 C21.474211,74.6958153 21.4115094,75.3885416 21.4115094,75.3885416 C20.7808049,75.4514068 20.9062081,76.2698635 20.9062081,76.2698635 L19.5833269,76.7087111 L19.331291,77.0859023 L17.6936723,77.0230371 L17.2523021,77.4643025 L16.8097025,77.0230371 L13.6586388,77.0230371 L13.534465,76.7087111 L12.9037605,76.5817717 L12.8398295,75.8914633 L11.8956169,75.9531196 L11.7062826,76.3315198 L10.6981389,76.393176 C10.7608406,77.0230371 9.6899953,77.9660153 9.56459206,77.7157634 C9.43672994,77.4630936 8.74455327,76.7703673 9.0592908,76.6458458 C9.37525777,76.5201154 10.1952966,76.393176 10.1952966,76.393176 L10.1952966,75.9531196 L7.86181285,75.8914633 L7.61100638,76.2686546 L6.6643349,76.3315198 L6.6643349,77.3373632 L6.22419414,77.4630936 C5.90822717,77.6516892 6.28689576,78.3444155 6.28689576,78.3444155 C6.72703652,78.7832631 6.22419414,79.4747804 6.22419414,79.4747804 C5.84552555,79.8531806 6.53893167,80.5446979 6.53893167,80.5446979 C7.0430035,80.6704284 6.22419414,81.0476196 6.22419414,81.0476196 C6.34959737,81.6762718 6.72826597,81.8648674 6.72826597,81.8648674 C6.34959737,82.4935195 6.98153132,82.8078456 6.98153132,82.8078456 L7.0430035,83.8777631 L7.4843737,84.129224 L7.4843737,84.8195324 L7.73640962,85.2607978 L8.74455327,85.2607978 L8.68185165,83.6891675 C7.79911123,82.6821152 9.43672994,82.4306543 9.500661,82.8078456 C9.56459206,83.1850369 10.2579982,83.3736325 10.2579982,83.3736325 C10.3834014,84.3178196 11.4554761,84.8823976 11.7689842,83.9406284 C12.0849512,82.9952323 12.3369871,83.5622281 12.5263214,84.0022846 C12.7156557,84.44355 13.9106748,85.5122587 13.9106748,85.5122587 L14.8573462,85.5122587 L14.9839789,86.3923716 C16.0548242,86.3295064 16.3683323,86.4564458 16.8097025,87.9023457 C17.2523021,89.3470366 18.4485506,89.7254368 18.4485506,89.7254368 L19.331291,89.6625716 C19.331291,88.909398 20.2140315,89.789511 20.2140315,90.1667023 C20.2140315,90.5426846 21.9143518,91.9897934 21.9143518,91.9897934 L23.6159016,92.3657757 L25.1932775,93.6254979 L26.389526,93.4997675 L26.8935979,93.4997675 C27.2083354,92.4298499 28.7217803,93.5614237 28.8459541,93.938615 C28.9738162,94.3170152 29.9819599,94.9456673 30.1061337,94.6301323 C30.2327663,94.3170152 30.9261725,94.5056108 31.0528051,95.448589 C31.1782084,96.3927762 31.6183491,96.2029716 31.6183491,96.2029716 L35.210783,96.1401064 L36.4709625,95.0701888 L39.6859572,95.0085325 C41.3235759,94.9456673 40.3154323,92.744176 40.0006948,92.744176 C39.4339213,92.3041195 40.190029,90.4810283 40.190029,90.4810283 L35.5894516,86.2678502 C34.5186063,86.2678502 35.4628189,84.7566672 35.4628189,84.7566672 C36.2828577,84.2537455 35.2734846,83.4377067 35.2734846,83.4377067 C35.4001173,82.6821152 34.8321144,81.8020022 34.8321144,81.8020022 C33.6997969,81.0464107 34.013305,79.5993019 34.013305,79.5993019 L34.013305,78.5934585 C33.0690924,77.7145544 34.3919736,77.5864061 34.3919736,77.5864061 C34.8321144,76.8332325 34.0760066,76.2674456 34.0760066,76.2674456 L34.013305,75.4501979 L33.0051614,75.3232585 L32.8797581,72.3673846 L30.6114349,69.1612587 C30.1700647,69.0343194 30.4848023,68.2799368 30.4848023,68.2799368 C31.0515757,67.9656108 30.3581696,67.2124372 30.3581696,67.2124372 L30.295468,65.8281935 L31.6183491,65.7012542 L31.9343161,65.1995414 L32.5637912,65.1995414 L32.5010896,63.563837 C32.8158271,62.7465892 33.5719348,63.1866457 33.5719348,63.1866457 L34.4534458,63.2495109 L34.9587471,62.3053238 L35.0841503,61.5509412 L34.3919736,61.489285 C33.6346364,61.0480195 34.013305,59.413524 34.013305,59.413524 C35.210783,57.6520891 36.5963658,58.6579325 36.5963658,58.6579325 L37.4791062,58.5962762 C38.8019874,59.4763892 37.6045094,61.1108847 37.6045094,61.1108847 C37.3524735,61.489285 37.4791062,62.683724 37.4791062,62.683724 L37.7938437,64.6954108 L36.9750344,65.3881371 C36.2816282,65.7653283 36.2816282,66.6454413 37.037736,66.8340369 C37.5418078,66.8956932 37.3524735,68.0913412 36.5963658,67.2740934 C35.4628189,67.2740934 37.2270703,68.2799368 36.7229984,68.027267 C37.8577748,68.5942629 37.6045094,67.5243453 37.6045094,67.5243453 L39.1179543,66.3299063 C39.6859572,65.8898498 40.6941009,67.2740934 40.6941009,67.4626891 C40.6941009,67.6512847 43.21446,67.5243453 43.21446,67.5243453 C43.9066367,67.9656108 44.1586726,69.0971846 44.1586726,69.0971846 C44.8533082,68.2158627 46.3015926,69.0343194 45.2307473,69.5372411 C46.2376615,70.1658932 46.2376615,70.7316801 46.2376615,70.7316801 C47.0577003,70.4802193 47.0577003,71.1088714 47.0577003,71.298676 C47.0577003,71.4872716 47.3097362,70.3556978 47.3097362,70.3556978 C46.3642942,69.6629715 48.5699158,69.4115106 47.9404407,70.6700238 L47.5617721,71.2358107 L48.1924766,71.7387324 L48.2551783,73.1858413 C49.6419905,73.0589019 49.2633219,71.3615412 49.2633219,71.3615412 L49.8940264,71.2358107 C49.8940264,70.6700238 50.3341672,70.9843499 50.3341672,70.9843499 C49.8940264,68.8457237 51.3423108,68.4685325 51.3423108,68.4685325 C52.1623496,68.2799368 52.2250512,66.5813671 52.2250512,66.5813671 C51.6582778,66.3299063 51.9730153,65.4497933 52.6024904,66.2053848 C53.2319654,66.9585584 52.2250512,64.6942018 52.2250512,64.6942018 L51.7209794,64.2553543 L51.0275733,64.1924891 L50.9648717,63.4997628 L49.8313248,63.4997628 L49.6419905,64.3810847 L49.2006203,64.5068151 L49.0739876,64.2553543 L48.8846533,64.9468716 L47.7511064,64.9468716 L47.6884048,64.1924891 L48.3818109,64.0038934 L48.6338468,63.6267022 L48.8219517,62.6196498 L49.6419905,62.6196498 L50.7128358,62.3053238 C50.7755374,61.2366152 51.3435403,61.488076 51.3435403,61.488076 L51.7209794,61.8024021 L52.2877529,62.2424586 L52.3516839,62.6196498 L51.9730153,62.8082455 L51.9103137,63.3123761 L52.099648,64.0038934 L52.6037198,64.0038934 C52.7918247,62.9968411 54.1159353,62.9968411 54.4946039,63.6254932 L54.872043,62.7453803 C53.9905321,62.3053238 54.8560603,61.6138064 55.1080962,61.9281325 C55.3601321,62.2424586 55.9428883,61.1108847 55.9428883,61.1108847 C55.9428883,61.1108847 56.3842585,61.6766716 55.9428883,60.9222891 C55.5027475,60.1666976 56.2576258,59.7895063 56.2576258,59.7895063 C56.1322226,59.0351238 57.0776646,59.1608542 57.0776646,59.1608542 L57.1415957,58.1550108 L56.2576258,58.0921456 C56.0707504,58.9722586 55.3134132,58.217876 55.6920818,58.0292804 C56.0707504,57.8406848 56.4469601,57.4634935 56.4469601,57.4634935 L56.4469601,56.8336324 L56.8256287,56.707902 L56.8883303,56.0792499 L57.8337724,56.0792499 L58.6525817,55.7020586 L58.841916,55.3877325 L59.723427,55.3248673 L60.9836066,54.1932935 L60.8594328,53.6903718 C60.1020956,53.6903718 60.8594328,53.1233759 60.8594328,53.1233759 L60.9836066,52.1828157" id="Fill-18"></path>
                <path d="M35.9125683,63.8116872 L34.6717981,63.6939891 L34.7417007,64.1059325 L35.0858363,64.1059325 C35.6356467,64.9309511 35.1543945,66.9318192 35.1543945,66.9318192 C35.1543945,66.9318192 34.3290068,66.9906682 34.1892017,66.6375739 C34.0534295,66.2844795 33.7079496,67.4037434 33.9835269,67.5802906 C34.25776,67.755706 35.2242971,67.5802906 35.2915111,68.2276302 C35.3600693,68.8749699 35.9125683,67.8156868 35.9125683,67.8156868 L35.9125683,63.8116872" id="Fill-19"></path>
                <polyline id="Fill-20" points="35.3685905 69.6706482 34.557377 69.339025 34.557377 70.6655181 35.8597549 71.8251366 36.3445817 71.051349 36.5093595 70.5539141 35.938975 70.3891653 36.0197795 69.56117 36.5093595 69.5037737 36.5901639 69.1147541 35.3685905 69.6706482"></polyline>
                <polyline id="Fill-21" points="36.1910601 73.1803279 35.9484809 73.2155628 35.9125683 73.4974426 36.1910601 73.5326776 36.1910601 73.1803279"></polyline>
                <polyline id="Fill-22" points="34.8514536 75.8907104 34.557377 75.9252678 34.557377 76.1732678 34.8514536 76.1380328 34.8514536 75.8907104"></polyline>
                <path d="M36.0602842,74.1567432 C36.1415956,74.1567432 36.2066448,74.0896612 36.2066448,74.0076721 C36.2066448,73.9243279 36.1415956,73.8579235 36.0602842,73.8579235 C35.9789727,73.8579235 35.9125683,73.9243279 35.9125683,74.0076721 C35.9125683,74.0896612 35.9789727,74.1567432 36.0602842,74.1567432" id="Fill-23"></path>
                <path d="M36.7378798,75.8907104 C36.8191913,75.8907104 36.884918,75.9577923 36.884918,76.040459 C36.884918,76.1231257 36.8191913,76.1902077 36.7378798,76.1902077 C36.6565683,76.1902077 36.5901639,76.1231257 36.5901639,76.040459 C36.5901639,75.9577923 36.6565683,75.8907104 36.7378798,75.8907104" id="Fill-24"></path>
                <path d="M36.7378798,67.7595628 C36.8191913,67.7595628 36.884918,67.8259672 36.884918,67.9086339 C36.884918,67.9913005 36.8191913,68.0583825 36.7378798,68.0583825 C36.6565683,68.0583825 36.5901639,67.9913005 36.5901639,67.9086339 C36.5901639,67.8259672 36.6565683,67.7595628 36.7378798,67.7595628" id="Fill-25"></path>
                <polyline id="Fill-26" points="56.5712721 62.3387978 56.680649 61.651046 56.7195619 61.1344042 56.9498843 60.7877684 57.5956284 60.5007452 57.5956284 59.4100569 57.2727564 59.4100569 57.2191196 59.0071204 56.6249088 58.9508197 56.5186871 59.236739 56.2494517 59.236739 56.1937116 59.6970801 56.5186871 59.6970801 56.5712721 60.041508 56.3556735 60.2711266 56.2494517 60.5581498 55.8172028 60.674063 54.8464832 61.651046 54.7938982 62.1091792 54.5236112 62.5121157 54.2017908 63.3731854 53.0680576 63.4294861 52.852459 64.4627698 53.0123175 65.3238395 53.9830371 65.726776 54.0924139 65.1538334 54.415286 64.9805155 54.4710261 64.4064691 54.6845213 64.0035326 55.0094968 63.602804 55.1157186 63.1424629 55.6541892 62.7991389 56.3020368 62.6821218 56.5712721 62.3387978"></polyline>
                <path d="M60.0990746,63.6420267 L60.0990746,62.8263931 L59.9662526,62.069019 L58.9854128,61.6612022 L58.2663857,62.2437976 L58.1348408,63.0594313 L58.1348408,63.5837672 L57.4796705,63.7014067 L57.3481256,65.2744144 L56.8257773,65.449193 L56.8909112,66.0329088 L56.170607,66.2065671 L55.4515799,66.3824661 L55.320035,67.1398402 L54.7976867,67.4311379 L54.5333197,68.1302525 L54.2076503,69.8208997 C54.2076503,69.8208997 54.7964096,70.8113119 55.1233562,70.3452356 C55.4515799,69.8791592 55.9752053,69.8208997 55.9752053,69.8208997 L56.170607,69.4119625 L57.938162,69.470222 C58.0697069,68.829367 58.9202789,69.0624052 58.9202789,69.3537029 C58.9202789,69.6450007 59.5754492,69.4119625 59.5754492,69.4119625 L60.0326636,68.7711075 L60.7529678,68.7711075 L60.8181017,68.0719929 L61.1463254,67.8972143 L61.1463254,66.8474221 C62.1935762,66.5561244 62.0620313,65.6822312 62.0620313,65.6822312 L62.3251211,65.3909335 L62.1935762,64.984237 C61.6686737,64.808338 61.9304864,64.3994008 62.2587101,64.5170403 C62.5869338,64.632439 61.8002186,63.991584 61.8002186,63.991584 C61.4081381,64.2840021 61.0811915,63.6420267 61.0811915,63.6420267 L60.0977975,63.6420267 L60.0990746,63.6420267" id="Fill-27"></path>
                <path d="M60.3060109,71.3537657 C60.2465318,71.7067273 59.3485135,71.8251366 59.3485135,71.8251366 L58.6919105,71.7367546 L58.3338694,71.5894512 L58.273224,71.1764351 L58.8108688,71.147541 L58.9309933,71.3243051 L60.3060109,71.3537657" id="Fill-28"></path>
                <path d="M63.3985574,67.6200097 C63.4737705,68.230426 63.4676721,66.6363367 63.6065792,66.707754 C63.7454863,66.7778239 63.6418142,65.726776 63.6418142,65.726776 L63.0163934,66.6363367 C63.328765,66.707754 63.3633224,67.3397303 63.399235,67.6200097 L63.3985574,67.6200097" id="Fill-29"></path>
                <path d="M67.7215487,63.9402847 C68.0059614,64.4988665 67.9352051,65.3039866 69.0007118,65.9245008 C69.3600429,66.1329268 68.7870555,66.5438239 68.4304992,66.356836 C68.0753303,66.171039 67.0819672,64.8085281 67.0819672,64.8085281 L67.0819672,64.002217 C67.2942361,63.5079495 67.5980721,63.7008924 67.7215487,63.9402847" id="Fill-30"></path>
                <polyline id="Fill-31" points="67.3245464 83.3442623 67.0819672 83.5224699 67.1849617 83.6268197 67.2879563 83.8029945 67.5318907 83.4160874 67.3245464 83.3442623"></polyline>
                <polyline id="Fill-32" points="74.9231038 81.4896831 74.8119781 81.3114754 74.5355191 81.4862951 74.644612 81.6658579 74.9231038 81.4896831"></polyline>
                <path d="M92.8492184,94.6240627 L93.4460345,94.8612614 L93.5120597,95.8753717 C94.3095405,96.5904054 96.8961749,95.994544 96.8961749,95.8157856 C96.8961749,95.6358813 96.7628298,93.6099524 96.7628298,93.6099524 L96.4314092,93.3120217 L96.365384,91.8212222 C96.6307794,91.0466024 95.1044322,89.9133198 94.9710871,90.1528102 C94.8390367,90.3911548 93.9768253,90.2112505 93.9768253,90.4507409 C93.9768253,90.6879396 93.4460345,91.8808084 93.7114299,92.2979114 C93.9768253,92.7161603 93.5120597,92.7161603 93.4460345,93.1332633 C93.3800093,93.5503663 92.7158734,94.2665459 92.8479238,94.6240627 L92.8492184,94.6240627" id="Fill-33"></path>
                <path d="M91.242483,92.2262833 C91.1823884,92.4443247 90.9574981,92.5716077 90.8304939,92.4852766 C90.7022507,92.3983921 90.9884747,92.6286084 91.0522865,92.74427 C91.1154789,92.8593781 91.3056753,92.8593781 91.3701067,92.74427 C91.4326795,92.6286084 91.4017029,92.3701685 91.4655147,92.2550603 C91.5280875,92.1399521 91.2746987,92.1111751 91.242483,92.2262833" id="Fill-34"></path>
                <polygon id="Fill-35" points="88.7650273 80.6264262 89.0076066 80.6264262 89.0076066 79.9562842 88.7650273 79.9562842"></polygon>
                <path d="M94.9039601,68.0975613 C94.5645796,67.8922498 96.456929,67.5338017 96.7675227,67.9566214 C97.0781165,68.379441 96.7675227,68.3096487 96.456929,68.2744137 C96.1448201,68.2385012 95.3706083,68.379441 94.9039601,68.0975613" id="Fill-36"></path>
                <polyline id="Fill-37" points="96.8961749 59.8357596 97.2776612 59.9055519 97.314929 59.6982077 96.9320874 59.6284153 96.8961749 59.8357596"></polyline>
                <polyline id="Fill-38" points="94.0245947 59.9936393 94.1857923 59.9157158 94.127535 59.739541 94.090205 59.6284153 94.0042329 59.6866885 93.7881715 59.8323716 93.5998248 59.6900765 93.5081967 59.8676066 93.7406607 60.0437814 93.7842123 60.0769836 93.8283295 60.0471694 94.0031017 59.9292678 94.0245947 59.9936393"></polyline>
                <path d="M97.1610796,45.7208565 L96.2462065,45.7208565 C96.2462065,45.7208565 96.5507676,45.8450291 95.6977586,45.0379075 C94.8435598,44.229592 94.2951118,45.2241663 94.2951118,45.2241663 L93.3195645,45.3483389 L93.3195645,46.3417192 L92.8306011,46.5279781 L92.8924651,47.1488408 L93.5634513,47.0879485 C93.5634513,47.0879485 93.5634513,47.8329837 93.7466639,47.5225524 C93.9298764,47.2109271 95.4538717,47.5834447 95.3313335,48.3296739 C95.2825561,48.6353294 96.8565185,49.4472268 96.6744956,50.4406072 C97.4668304,50.5647797 97.2836179,51.3730952 97.2836179,51.3730952 L98.3198395,51.4972678 L98.6255903,50.876405 L98.9289617,50.9384913 L98.9289617,50.5647797 L98.2579755,50.3797149 L98.1366269,48.3917602 L97.7107172,48.0813288 L97.8320658,47.5834447 L97.3442921,47.3971859 L97.588179,46.5900643 L97.1610796,45.7208565" id="Fill-39"></path>
                <path d="M99.8137746,51.5547828 L99.3433961,51.4972678 L98.2833237,51.6698128 L97.6970715,52.762598 C97.6970715,52.762598 97.9907713,52.935143 98.2248132,53.3377481 C98.4600024,53.7414592 98.5781707,56.0995746 97.872603,56.5032857 C97.1670353,56.9058908 97.9322608,56.6747247 97.9322608,56.6747247 L97.8140925,57.941161 C97.9907713,58.5163111 98.2833237,58.228736 98.4600024,57.941161 C98.6378284,57.6535859 98.8145072,57.5960709 99.0496964,57.3084959 C99.2848856,57.0198148 99.6370958,56.5032857 99.6956063,56.0995746 C99.7541168,55.6969695 100.048964,55.0643044 99.872285,54.8917594 C99.6956063,54.7192144 100.048964,53.9140042 100.048964,53.9140042 C100.048964,53.9140042 100.284153,53.4527781 100.048964,52.9937641 C99.8137746,52.5325379 100.107474,52.0149028 100.284153,51.7848428 L99.8137746,51.5547828" id="Fill-40"></path>
                <polyline id="Fill-41" points="100.961749 53.812612 100.996984 53.5300546 101.204328 53.5571585 101.168415 53.8390383 100.961749 53.812612"></polyline>
                <polyline id="Fill-42" points="99.7922186 55.8684372 99.6065574 55.7742514 99.7109071 55.5628415 99.8965683 55.6570273 99.7922186 55.8684372"></polyline>
                <path d="M99.1245846,51.1760048 L98.9067386,50.5977315 C98.9067386,50.5977315 98.9067386,50.0837108 99.0156616,49.8254648 C99.1245846,49.5684544 98.7988731,49.3126797 98.6370748,49.2471915 C98.4742191,49.1829389 98.5281518,48.6689182 98.4742191,48.4119078 C98.4202863,48.1548975 98.0406421,47.9621397 98.0406421,47.9621397 C98.0406421,47.9621397 97.931719,46.9983508 97.931719,46.8055931 C97.931719,46.6128353 97.4442093,46.3558249 97.607065,46.1618315 C97.7699208,45.9690738 97.8777863,45.713299 98.0406421,45.5835582 C98.2034978,45.455053 97.8777863,44.5555168 98.1485076,44.7482746 C98.4202863,44.9410323 98.4202863,45.2622953 98.5281518,45.5193056 C98.6370748,45.776316 98.4742191,46.6770879 98.7459978,46.8698457 C99.0156616,47.0626034 98.6910076,47.7051293 99.1245846,47.7051293 C99.5581616,47.7051293 99.2874403,48.9259285 99.2874403,48.9259285 C99.2874403,48.9259285 99.1785173,49.8254648 99.4492386,49.890953 C99.7210173,49.9552056 99.5581616,51.4972678 99.5581616,51.4972678 L99.1245846,51.1760048" id="Fill-43"></path>
                <path d="M95.5409836,40.7046257 C95.724881,40.9001776 96.0950795,41.0468416 96.0950795,41.2433337 C96.0950795,41.4388856 95.9724813,41.5846094 96.3426799,41.6344376 C96.7104746,41.6823854 96.958075,41.5846094 97.0806732,41.8299895 C97.2044734,42.0734893 97.2044734,42.4655333 97.1431742,42.6610853 C97.0806732,42.8566372 97.2044734,43.1499651 97.5121709,43.1499651 C97.8198684,43.1499651 97.8811675,43.1988531 97.8811675,43.3455171 C97.8811675,43.492181 98.2513661,42.8077492 98.2513661,42.8077492 C97.9424666,42.6121973 97.6960682,42.1712653 97.6960682,42.1712653 C97.6960682,42.1712653 97.3895727,41.4868335 97.3895727,41.3890575 C97.3895727,41.2912815 96.958075,41.1935055 96.7729757,41.1446176 C96.5878764,41.0957296 96.2801788,40.6557377 96.2801788,40.6557377 L95.5409836,40.7046257" id="Fill-44"></path>
                <path d="M96.384546,39.3005464 C96.2323314,39.074597 96.0801167,38.9059458 95.8774934,38.7945927 C95.6758584,38.6810775 95.5236437,38.5686433 95.3200319,38.5686433 C95.1174085,38.5686433 94.9157735,38.343775 95.0156026,38.0626896 C95.1174085,37.7816042 94.863388,37.66917 94.863388,37.4432206 C94.863388,37.2194334 95.0156026,37.2194334 95.2696232,37.3880846 C95.5236437,37.5567359 95.4722466,37.6129529 95.6758584,37.8940383 C95.8774934,38.1751237 95.9783108,38.4562091 96.1809342,38.3999921 C96.384546,38.343775 96.5357723,38.9059458 96.7383957,38.7372945 C96.9410191,38.5686433 96.8906103,39.1308141 96.8906103,39.1308141 L96.384546,39.3005464" id="Fill-45"></path>
                <path d="M89.1515341,45.8824131 C89.4708832,46.1811741 87.4098361,46.0978958 87.4098361,45.8824131 C87.4098361,45.6658894 87.5853648,44.9080564 88.1062888,45.0694082 C88.6283452,45.231801 88.6860999,44.0950515 88.6860999,44.0950515 C88.6860999,44.0950515 88.2229305,44.1481415 88.6283452,43.9326588 C89.0348924,43.7161351 88.6283452,43.3903085 88.4539489,43.2289567 C88.2806851,43.065523 88.1062888,42.7948683 88.1062888,42.7948683 L88.9193832,42.7948683 C89.2681758,42.5783446 89.383685,41.549857 89.383685,41.549857 C90.0790053,41.7663807 90.4277979,41.3333333 90.4277979,41.3333333 C90.4277979,41.3333333 90.545572,41.6581189 90.7777229,41.9287735 C91.0087414,42.1994281 90.195647,42.30769 90.486685,42.4700828 C90.7777229,42.6335165 90.8920997,43.1196539 90.7777229,43.2820467 C90.6610813,43.4444394 90.0212507,43.3361776 90.0212507,43.1196539 C90.0212507,42.9031302 89.7890998,43.3903085 90.0212507,43.6620041 C90.2534016,43.9326588 89.7313452,44.3115752 89.6147035,44.3115752 C89.4991943,44.3115752 88.7449869,44.4198371 89.3825526,44.7446226 C90.0212507,45.0694082 90.7188359,44.9070154 90.7188359,44.9070154 C90.7188359,44.9070154 91.2408923,44.8528845 91.4152886,45.1235391 C91.5896849,45.3941938 91.357534,45.4493657 91.066496,45.4493657 C90.7777229,45.4493657 89.383685,45.3400628 89.383685,45.3400628 C89.383685,45.3400628 88.9771378,45.7189793 89.1515341,45.8824131" id="Fill-46"></path>
                <path d="M85.4781313,47.466929 C85.6279467,47.431694 85.9858713,47.396459 86.0459141,47.5021639 C86.1059568,47.6078689 85.8366389,47.7488087 85.8366389,47.7488087 L85.4781313,47.8192787 C85.3586287,47.6431038 85.3288988,47.5021639 85.4781313,47.466929" id="Fill-47"></path>
                <path d="M93.5081967,42.2715427 C93.9658862,42.0630517 94.9381972,42.0630517 94.8812651,41.7503153 C94.824333,41.4375788 95.4528188,41.3333333 95.4528188,41.3333333 L95.6247314,41.9588062 L96.139353,42.2715427 L96.1974014,42.8448928 C96.1974014,42.8448928 96.3681977,42.7406473 95.7397119,42.8970156 C95.1089935,43.0533838 95.5108672,43.3139975 95.5108672,43.3139975 L94.1366825,43.3661202 L93.9658862,42.8448928 L93.5081967,42.2715427" id="Fill-48"></path>
                <path d="M90.0824958,39.3986133 C90.3812953,39.3986133 89.9844973,40.9292445 90.7713679,40.7974259 C91.5591993,40.6630478 90.821328,41.2632702 91.4122015,41.3285396 C92.0030751,41.3963686 91.8551165,40.7295969 92.0520744,40.2650324 C92.249993,39.7979084 92.1510337,39.5317116 91.8061172,39.3986133 C91.46024,39.2655149 91.46024,39.2655149 91.3632023,38.7318416 C91.2642429,38.2007279 90.8703272,38.0663498 90.8703272,38.0663498 L90.7223686,37.2677596 L90.0824958,37.800153 L89.442623,38.932769 C89.442623,39.7979084 89.7865786,39.3986133 90.0824958,39.3986133" id="Fill-49"></path>
                <polyline id="Fill-50" points="92.8306011 44.9327213 92.9349508 44.7213115 93.1212896 44.8161749 93.0169399 45.0275847 92.8306011 44.9327213"></polyline>
                <polygon id="Fill-51" points="91.4754098 43.612765 91.6841093 43.612765 91.6841093 43.3661202 91.4754098 43.3661202"></polygon>
                <polyline id="Fill-52" points="91.6827541 35.2349727 91.7173115 35.5520874 91.5106448 35.5758033 91.4754098 35.2586885 91.6827541 35.2349727"></polyline>
                <polygon id="Fill-53" points="91.4754098 41.5101858 91.6841093 41.5101858 91.6841093 41.3333333 91.4754098 41.3333333"></polygon>
                <polyline id="Fill-54" points="90.8181421 40.9010273 90.7978142 40.6902951 91.1454208 40.6557377 91.1657486 40.8664699 90.8181421 40.9010273"></polyline>
                <polyline id="Fill-55" points="84.8898579 47.0840874 84.6994536 47.0007432 84.8038033 46.7540984 84.9948852 46.8374426 84.8898579 47.0840874"></polyline>
                <polyline id="Fill-56" points="83.3645902 45.6441967 83.3442623 45.4341421 83.6918689 45.3989071 83.7121967 45.6089617 83.3645902 45.6441967"></polyline>
                <polyline id="Fill-57" points="70.4699454 46.7886557 70.4782667 46.999388 71.147541 46.9648306 71.1386253 46.7540984 70.4699454 46.7886557"></polyline>
                <polyline id="Fill-58" points="69.1838689 45.7614208 69.1147541 45.4449836 69.3187104 45.3989071 69.3878251 45.7160219 69.1838689 45.7614208"></polyline>
                <polyline id="Fill-59" points="69.1804809 46.9899016 69.1147541 46.7893333 69.2191038 46.7540984 69.2848306 46.9546667 69.1804809 46.9899016"></polyline>
                <path d="M72.5632705,45.4775449 L72.5027322,45.6770149 L73.1710271,45.7060586 C73.1710271,45.7060586 73.4749054,45.8200414 73.4749054,45.9055285 C73.4749054,45.9910156 73.9022343,46.0765027 74.1443873,46.0765027 C74.3877274,46.0765027 75.0572093,45.8479891 75.0572093,45.8479891 C75.0572093,45.8479891 75.3622746,45.4490492 75.1189346,45.4775449 C74.8744075,45.5060407 74.3877274,45.6770149 74.3283762,45.5060407 C74.2666509,45.3350664 73.5366307,45.4200055 73.5366307,45.4200055 L72.5632705,45.4775449" id="Fill-60"></path>
                <path d="M75.2325879,45.8441231 C75.2325879,46.0575576 75.1094305,46.3421369 75.4825608,46.4132817 C75.8593494,46.4844266 76.5470799,46.1287024 76.6080489,46.5555714 C76.6714566,46.9824404 76.6714566,47.2683878 77.1714026,47.4818223 C77.6701291,47.6952568 77.9835098,47.7664016 78.359079,47.7664016 C78.7322093,47.7664016 79.5467554,47.6227438 79.5467554,47.6227438 C79.5467554,47.6227438 80.4308061,47.7787152 80.6088356,47.9798361 C81.2953467,48.7624292 81.7331043,48.9758637 81.9208888,48.6201396 C82.107454,48.2644154 81.8587004,47.4818223 81.796512,47.197243 C81.7331043,46.9112955 80.8575892,45.5595438 80.5454278,45.8441231 C80.2332665,46.1287024 80.1710781,45.8441231 79.6077244,46.0575576 C79.0455901,46.2709921 77.8579137,46.1287024 77.7957253,45.8441231 C77.7335369,45.5595438 76.8592412,45.4172541 76.8592412,45.1326748 C76.8592412,44.8467274 76.2349185,44.4923714 76.2958875,44.9192403 C76.3580759,45.3447411 75.8593494,45.5595438 75.7325338,45.4172541 C75.608157,45.2749645 75.2325879,45.8441231 75.2325879,45.8441231" id="Fill-61"></path>
                <path d="M91.028818,38.0076487 L91.4754098,36.5704377 C90.8384878,36.4397821 90.9653746,35.7211766 90.9653746,35.7211766 C90.9019312,35.1332267 90.0099915,34.4799489 89.6902865,34.6759323 C89.3718255,34.8706593 89.4987123,33.3027927 89.4987123,33.3027927 C89.4987123,33.3027927 90.0734349,32.9108261 90.3284526,33.1068094 C90.5834702,33.3027927 88.1601808,29.8391645 87.6501456,30.1658034 C87.1401104,30.4924422 85.9931531,29.8391645 86.0565965,29.2512146 C86.1200399,28.6632646 83.7614379,26.7021751 83.7614379,26.7021751 C83.7614379,26.7021751 82.9963851,26.179553 82.8682543,26.5727759 C82.7413675,26.9634862 82.4863499,27.2260536 82.8682543,27.4207806 C83.2501587,27.6180203 83.1867153,27.0941418 83.6333071,27.5514362 C84.078655,28.0087306 84.9096392,28.5979368 84.5899342,28.9899035 C84.2714732,29.3818701 83.8883247,29.5125256 83.8883247,29.5125256 L84.3349166,30.0364041 L85.036526,30.0364041 L85.1634128,31.14572 C85.1634128,31.14572 85.9284657,31.5389429 86.1200399,31.9962373 C86.3116141,32.4535317 86.3116141,32.7148428 86.1200399,32.9761539 C85.9284657,33.237465 85.5478052,33.6947594 85.6100047,34.1520538 C85.6734481,34.6093482 86.1847273,34.8053315 86.1847273,34.8053315 L86.6935185,34.8719156 L87.0766669,35.0678989 L87.0766669,35.9184162 C87.5867022,35.7865044 88.4151984,36.5051099 88.351755,36.9624043 C88.2883116,37.420955 88.4786418,37.1583876 89.1155639,37.6169383 C89.7549739,38.0742327 89.5633997,38.1395605 90.0099915,38.4661994 C90.4565834,38.7915819 90.8384878,38.5968549 91.028818,38.0076487" id="Fill-62"></path>
                <path d="M79.5512962,28.2618484 C79.4974052,28.0171297 79.3885666,27.1647121 79.7140259,27.2255991 C80.0384285,27.286486 79.8228645,27.2255991 80.2022148,27.40826 C80.5805085,27.5909209 80.6343995,27.1038251 80.6343995,27.1038251 L81.2314271,27.1038251 L81.989071,27.7735818 L81.8802324,28.3215645 L81.3381524,28.3824515 C81.0686974,27.8953557 80.5266175,28.0780166 80.6343995,28.5053963 C80.7432381,28.9304342 80.3638878,29.7231357 80.1483239,29.7840226 C79.9317032,29.8449096 79.2258369,29.8449096 79.2818413,29.4795878 C79.3346756,29.114266 79.5512962,28.2618484 79.5512962,28.2618484" id="Fill-63"></path>
                <path d="M79.2786885,26.4262295 L79.2786885,25.9285506 C79.2786885,25.9285506 79.2213959,25.4308718 78.9393398,25.4308718 C78.6583855,25.4308718 78.1493625,25.0576126 78.2617442,24.8087732 C78.3752277,24.5587374 77.3020925,24.309898 77.3020925,24.309898 C77.3020925,24.309898 76.3424408,23.3145402 76.6817895,23.43896 C77.0200364,23.5633797 76.8514639,23.0034909 76.8514639,23.0034909 C76.8514639,23.0034909 76.1727664,23.1279107 76.0030921,23.0657008 C75.8334177,23.0034909 75.8896086,22.4436022 75.8896086,22.4436022 C75.8896086,22.4436022 75.2131148,22.2569726 75.2131148,22.4436022 C75.2131148,22.6302318 75.43898,22.6302318 75.5513617,23.0034909 C75.6648452,23.3767501 75.6086543,23.9988487 76.1176774,24.1232684 C76.6255986,24.2476881 76.7379804,24.3721078 76.795273,24.6209473 C76.8514639,24.870983 77.4717668,24.9319966 77.4717668,24.9319966 L77.924599,25.180836 L79.2786885,26.4262295" id="Fill-64"></path>
                <polyline id="Fill-65" points="72.7805464 20.3976612 72.5027322 20.3278689 72.5027322 20.6456612 72.883541 20.6802186 72.7805464 20.3976612"></polyline>
                <path d="M72.6717169,17.6578042 C71.991893,17.0602148 73.582808,18.1185074 73.582808,18.1185074 C74.1037946,18.1185074 74.4303642,18.5777387 74.4303642,18.8073543 C74.4303642,19.03697 75.1457677,18.9604314 75.1457677,18.9604314 L75.2131148,18.4246616 L74.6908575,17.6578042 L74.2359473,17.2765834 C74.2359473,17.2765834 73.5192731,17.2000448 73.5192731,16.9704292 C73.5192731,16.7408135 72.9322102,17.8888917 72.6717169,17.6578042" id="Fill-66"></path>
                <path d="M84.1116893,17.9510954 C83.9316331,18.5040979 83.863961,19.2783015 83.5546026,19.2783015 C83.2452442,19.2783015 83.3685042,20.1011207 83.3685042,20.1011207 C83.3685042,20.1011207 84.1757362,20.1011207 84.4222561,20.164321 C84.6699845,20.2263059 84.6699845,20.8583088 84.6699845,20.8583088 C85.599268,20.7963239 85.9714648,22.0603297 85.8469964,22.3763312 C85.722528,22.6923326 86.2179847,22.6923326 86.2179847,22.6923326 C86.2179847,22.6923326 86.2179847,23.7047527 86.0935163,23.9563384 C85.9714648,24.210355 86.8995399,24.3999559 87.1472683,24.7791576 C87.3949966,25.1583594 87.0227999,26.4223652 86.8379099,26.4855655 C86.6518115,26.5499812 87.3321582,26.7383666 87.2705282,27.0543681 C87.2076898,27.371585 87.4566266,27.0543681 87.5182566,27.5611858 C87.5798866,28.0667882 87.704355,29.1411931 87.704355,29.1411931 L88.5708001,29.2043934 C88.6952685,28.3827896 90.2928144,28.3511895 90.5538355,28.4459899 C91.606379,28.8251917 92.4124026,30.4696146 92.4124026,30.847601 C92.4124026,31.2268027 91.7308474,31.2912184 91.7308474,31.2912184 L91.8553158,33.1240269 C92.9066509,33.4400283 93.7743044,34.9580507 93.6510445,35.2108519 C93.5265761,35.463653 94.3930212,35.4004527 94.3930212,35.4004527 C94.5174896,34.2616321 95.5700331,34.6420492 95.6316631,35.021251 C95.6957099,35.4004527 95.8793914,36.2232719 95.8793914,36.2232719 L96.1899582,36.7908591 L96.623785,37.2332612 L97.3041317,37.1700609 L97.4902301,37.550478 L98.2950452,37.6768786 C98.2950452,37.6768786 98.9778088,38.4352821 99.0394388,38.624883 C99.1022772,38.8144839 100.030352,38.7512836 100.278081,38.8144839 C100.524601,38.8776841 100.896797,39.067285 100.958427,39.3832865 C101.021266,39.7005033 101.393463,40.2061057 101.393463,40.2061057 C101.393463,40.2061057 102.135439,40.3957065 102.198278,40.6485077 C102.259908,40.9000935 102.570474,41.4701115 102.570474,41.4701115 L103.187983,41.9757138 L103.250821,42.5457318 L103.932376,42.6089321 L104.118475,43.3661202 L105.23144,43.3041353 L105.852573,42.8617333 C106.657388,42.4193312 107.215684,41.8493132 107.277314,41.5965121 C107.338944,41.3437109 107.462204,40.3957065 108.082129,40.5853074 C108.700845,40.7749083 108.268227,39.1936856 108.268227,39.1936856 C108.268227,39.1936856 107.401782,38.5616827 107.462204,38.2456812 C107.525042,37.9296798 106.595758,37.2976769 106.657388,37.0448757 C106.719018,36.7908591 105.852573,36.2864722 105.914203,36.0324556 C105.975833,35.7796545 105.480377,35.0844513 105.480377,35.0844513 L104.551093,34.1996472 L104.426625,33.6296292 L103.684648,33.5676443 L102.198278,31.7336204 L102.259908,31.2280181 L101.826081,31.1648178 L101.826081,30.4696146 L101.393463,30.2155981 L100.710699,30.1523978 L99.3487971,28.6355908 L99.2255372,27.9403876 L98.543982,27.9403876 L98.667242,26.6119661 C99.1010688,26.0431634 98.8533404,24.9687585 98.8533404,24.9687585 C98.8533404,24.9687585 97.9856868,25.4111605 97.5530685,25.2215597 C97.1192417,25.0319588 97.7379585,24.5883414 97.7379585,24.5883414 L97.7379585,24.0839544 L97.3669701,23.7047527 C97.3669701,23.7047527 96.3132182,23.8311532 96.2515882,23.6415524 C96.1899582,23.4519515 96.0050683,22.6291323 96.0050683,22.6291323 L95.9422298,21.5547274 L95.5096115,21.3651265 L95.4467731,20.9859247 L94.7664264,21.049125 L94.7664264,20.2907215 L94.3942296,20.164321 L94.0220328,19.9747201 L93.9604028,19.2151012 L92.598501,19.1531163 L92.1646742,18.519898 L91.6692175,17.7614945 L90.1212172,17.6350939 L89.7490204,17.2558922 L89.1303037,17.1294916 L88.6964769,16.9398907 L88.5103786,17.2558922 L87.3333667,17.3190925 L87.2717367,17.6982942 C86.6530199,18.0142957 84.1757362,17.7614945 84.1116893,17.9510954" id="Fill-67"></path>
                <path d="M90.8026617,16.9833335 C90.7097624,16.4774153 91.9793858,16.0208549 92.2729934,16.4058463 C92.5666009,16.7908378 93.3900784,16.856237 93.5070627,18.7811943 C93.5483513,19.4709707 92.4484698,18.0753766 92.4484698,18.0753766 L91.5665002,17.7545504 C91.0962693,17.624986 90.8611538,17.3053937 90.8026617,16.9833335" id="Fill-68"></path>
                <polyline id="Fill-69" points="72.692459 16.6654645 72.5027322 16.5794098 72.6423169 16.2622951 72.8320437 16.3476721 72.692459 16.6654645"></polyline>
                <path d="M68.8782273,11.4541317 L68.1792635,10.5154199 L68.1792635,9.72112532 L67.9647611,9.4309023 L67.7513051,8.41998193 L67.0533876,8.13114754 L66.3565165,8.49219053 L65.605235,9.14206791 L64.8016358,9.28787373 L64.3715847,9.93775111 L66.0886501,10.1529883 L66.4098805,10.8764629 L67.6445771,11.0208801 L68.4481762,12.104009 C69.1460937,12.3928434 69.3072321,11.9595918 68.8782273,11.4541317" id="Fill-70"></path>
                <path d="M68.9142911,7.80487596 C68.7785419,7.2793024 67.9904762,8.46270544 68.7917565,8.70191616 C69.5930367,8.94227693 70.3919144,8.70191616 70.3919144,8.70191616 L70.5769176,8.34310008 L73.6546988,8.40290276 C73.9021706,8.16369204 74.0247053,7.80487596 74.0247053,7.80487596 C74.0247053,7.80487596 74.7635169,7.56566524 75.0710548,7.6852706 C75.3797939,7.80487596 75.1335234,6.84803308 74.8247842,6.96763844 C74.5172464,7.0872438 73.9021706,7.02744112 73.9021706,7.02744112 L72.7933525,7.02744112 C72.7320852,6.60882236 71.747003,6.78708034 71.6857357,7.02744112 C71.6232671,7.26665184 71.2544619,7.32645452 71.2544619,7.32645452 L69.838106,7.44605988 C69.71437,7.80487596 68.9767597,8.04408668 68.9142911,7.80487596" id="Fill-71"></path>
                <path d="M62.7468528,18.8224882 C63.5203718,19.134489 63.8030793,18.9036084 63.8541237,18.6440238 C63.9041865,18.3831912 63.9542493,18.318295 64.2565892,18.2546469 C64.5579475,18.1885027 64.2055448,17.4097488 63.9041865,17.474645 C63.6018466,17.5395411 63.3004883,17.3448527 63.2504255,17.0203719 C63.1983994,16.6958911 62.6958084,15.8522411 62.6457456,16.5012026 C62.5956828,17.1514122 62.2943245,17.1514122 62.3443873,17.6056853 C62.3944501,18.0587104 62.5456201,18.74012 62.7468528,18.8224882" id="Fill-72"></path>
                <path d="M54.886212,19.0695552 C54.8483488,18.9543125 55.9351248,18.9399072 56.0927175,19.0369866 C56.2503103,19.1346924 56.1449073,19.2975353 56.6166622,19.2975353 C57.0884172,19.2975353 56.8786346,19.4935731 56.8264448,19.5912789 C56.774255,19.6889846 56.2503103,19.656416 56.1970971,19.5587103 C56.1449073,19.4610045 55.3569436,19.4278096 55.3569436,19.4278096 C55.3569436,19.4278096 54.9384018,19.2323981 54.886212,19.0695552" id="Fill-73"></path>
                <polyline id="Fill-74" points="75.5138489 6.32061202 75.3496405 6.14104918 75.2131148 6.29079781 75.4377217 6.53744262 75.5000076 6.60452459 75.5666976 6.54557377 75.8907104 6.26301639 75.7692842 6.09836066 75.5138489 6.32061202"></polyline>
                <polyline id="Fill-75" points="72.5991914 4.13536612 72.5027322 4.31492896 72.7474526 4.49042623 72.7944913 4.5263388 72.8439118 4.49042623 73.1803279 4.24378142 73.0826779 4.06557377 72.7944913 4.27630601 72.5991914 4.13536612"></polyline>
                <polyline id="Fill-76" points="70.8317295 16.9764809 70.4905997 16.9398907 70.4699454 17.150623 70.7624375 17.1804372 70.9749773 17.5246557 71.147541 17.4114973 70.9090167 17.0245902 70.8816996 16.981224 70.8317295 16.9764809"></polyline>
                <path d="M50.8217085,35.2349727 L50.8569434,35.6225574 L51.3773369,35.6225574 C51.5860363,35.6225574 51.2038724,35.3759126 51.2038724,35.3759126 C51.2038724,35.3759126 50.7871511,35.4111475 50.8217085,35.2349727" id="Fill-77"></path>
                <polyline id="Fill-78" points="52.1748634 35.3982732 52.3076721 35.2349727 52.5163716 35.4104699 52.3835628 35.5737705 52.1748634 35.3982732"></polyline>
                <polyline id="Fill-79" points="40.6557377 23.188 40.8034536 23.0382514 41.0114754 23.2496612 40.8644372 23.3994098 40.6557377 23.188"></polyline>
                <polyline id="Fill-80" points="58.3660546 105.704918 58.273224 105.894645 58.4907322 106.003738 58.4189071 106.076918 58.5673005 106.226667 58.7414426 106.050492 58.8424044 105.947497 58.7129836 105.881093 58.3660546 105.704918"></polyline>
                <polyline id="Fill-81" points="53.1648306 100.284153 52.9554536 100.460328 52.852459 100.548415 52.9615519 100.627694 53.2054863 100.803869 53.326776 100.633115 53.192612 100.534863 53.2976393 100.446776 53.1648306 100.284153"></polyline>
                <path d="M99.944,88.348306 C99.8979235,88.1687432 99.6953224,88.0948852 99.6722842,88.0874317 L99.6065574,88.288 L99.6065574,88.2873224 C99.6228197,88.2934208 99.6472131,88.3062951 99.670929,88.3218798 L99.7136175,88.5048306 C99.6980328,88.5278689 99.6810929,88.5495519 99.667541,88.5658142 L99.8206776,88.7087869 C99.9318033,88.5847869 99.9731366,88.4641749 99.944,88.348306" id="Fill-82"></path>
                <polyline id="Fill-83" points="99.6065574 87.7276284 99.6329836 87.4098361 99.9717814 87.4633661 99.9460328 87.7520219 99.6065574 87.7276284"></polyline>
                <path d="M115.319972,82.1075067 C115.468366,82.0133209 115.658092,81.8425668 115.632344,82.2396379 C115.605918,82.6360313 115.450071,82.5045778 115.319972,82.6360313 C115.189874,82.7681625 115.111273,82.2396379 115.319972,82.1075067" id="Fill-84"></path>
                <path d="M118.146929,79.5483716 C118.144219,79.5415956 118.142186,79.5172022 118.140831,79.4989071 C118.136087,79.4413115 118.128634,79.3620328 118.087301,79.2786885 L117.901639,79.3728743 C117.924678,79.420306 117.928743,79.4697705 117.932809,79.5178798 C117.93823,79.579541 117.945005,79.6500109 118.003956,79.6947322 C118.041224,79.7231913 118.088656,79.7313224 118.144896,79.7204809 L118.104918,79.515847 C118.12118,79.5185574 118.142186,79.5334645 118.146929,79.5483716" id="Fill-85"></path>
                <path d="M117.901639,80.008459 C117.954492,80.2225792 118.031738,80.4339891 118.035126,80.4427978 L118.230273,80.3682623 C118.228918,80.3662295 118.153027,80.1595628 118.103563,79.9562842 L117.901639,80.008459" id="Fill-86"></path>
                <path d="M116.080219,81.3324809 L115.872197,81.3114754 C115.855935,81.4781639 115.895913,81.6834754 116.059891,81.7166776 L116.100547,81.5093333 C116.101902,81.5093333 116.103935,81.5106885 116.104613,81.5106885 C116.087673,81.4957814 116.072088,81.411082 116.080219,81.3324809" id="Fill-87"></path>
                <path d="M114.491301,74.0264771 C114.480459,73.9587176 114.439803,73.9065427 114.377464,73.8787613 C114.222973,73.8110017 113.963454,73.922805 113.836066,74.0095372 L113.951257,74.1850345 C114.083388,74.0955919 114.256175,74.0529033 114.294798,74.0725536 C114.29141,74.0711984 114.286667,74.0651001 114.285311,74.0610345 L114.491301,74.0264771" id="Fill-88"></path>
                <path d="M96.9924979,53.8738223 C96.7450585,54.128749 96.184681,54.2562123 96.184681,54.2562123 L95.9978885,54.9584861 L95.6885892,55.2134127 C95.6885892,55.2134127 95.7492361,55.403382 95.6885892,55.8507292 C95.6255164,56.2968508 95.0663519,56.5517774 95.0663519,56.5517774 L94.8176995,56.8704357 C94.8176995,56.8704357 93.3185077,56.9525515 93.1389929,56.8704357 C92.5798283,56.6155091 92.9534133,55.8507292 93.3257854,55.9144609 C93.6981574,55.9781925 93.2627126,54.8297972 93.2627126,54.8297972 L93.7612302,54.7660655 C93.7612302,54.7660655 93.8230901,53.6188957 94.0098826,53.6188957 C94.1954621,53.6188957 93.9480227,53.2365058 93.6981574,53.0453108 C93.4495051,52.8541159 93.1389929,52.2167993 92.8891276,52.280531 C92.6404752,52.343037 91.6458658,52.280531 91.6458658,52.280531 L91.4590733,52.6629209 L90.774976,52.7903842 C90.774976,52.7903842 90.83441,53.2830789 90.7143291,53.4277008 C90.3407441,53.8738223 88.9119028,54.8297972 89.5317142,53.2365058 L89.7185068,52.8541159 L89.7185068,52.280531 L88.6001776,52.2180249 C88.6001776,52.2180249 88.041013,52.0256044 88.041013,51.7706778 C88.041013,51.5157511 87.9779402,51.1970929 87.9779402,51.1970929 L86.6728186,49.7312648 L85.1190446,49.5400699 L84.9941119,49.220186 L84.0625753,49.0927227 C82.9430332,48.5203634 81.9472108,49.028991 82.1340033,49.9861914 C82.3207958,50.9433919 82.6313081,51.3245562 82.0102836,51.3245562 C81.3880463,51.3245562 81.2643266,50.8147029 81.2643266,50.8147029 C81.2643266,50.8147029 80.7670218,50.623508 80.7670218,50.8784346 C80.7670218,51.1333612 80.5802293,51.6432144 80.7670218,51.8981411 C80.9526014,52.1530677 80.5171565,52.5354576 80.331577,52.3442626 C80.1459974,52.1530677 79.6486927,51.5807084 79.7724124,51.3895134 C79.8961321,51.1970929 78.9015227,49.9861914 79.8961321,49.7949965 C80.8919545,49.6038015 79.8342723,49.028991 80.2078573,48.9027533 L80.705162,48.6478267 L81.2012538,48.6478267 L81.5129789,48.3916745 L80.705162,48.2654368 L80.2078573,48.2004795 L79.2751077,48.1367479 C78.3423581,48.77529 78.1567785,49.5400699 78.1567785,49.5400699 C77.6582609,50.4960447 76.4780719,49.1576799 76.9135168,48.6478267 C77.3477487,48.1367479 75.5453223,48.5840951 75.2348101,48.8390217 C74.9230849,49.0939483 73.9903354,48.966485 73.9903354,48.966485 C73.8047558,49.5400699 72.9338661,48.9027533 73.1825184,48.5203634 C73.4311708,48.1379735 73.4311708,47.8830469 73.4311708,47.8830469 L73.1206586,47.8180896 L72.7482865,48.5203634 C71.8773968,48.5203634 71.6287444,49.028991 71.814324,49.3488749 C72.0011165,49.6663076 71.5656716,49.2851432 71.4419519,49.7312648 C71.3182322,50.1773864 71.5038118,50.1773864 71.8773968,50.3685814 C72.2509818,50.5597763 71.6906043,50.5597763 71.9392566,50.8784346 C72.187909,51.1970929 72.9338661,50.8784346 72.4996342,51.3245562 C72.0641893,51.7706778 71.1932996,51.5807084 71.1932996,51.5807084 C71.1314397,52.1530677 69.9500378,52.02683 69.8263181,51.835635 C69.7013854,51.6432144 68.7698488,50.4960447 68.7698488,50.4960447 L67.5872339,50.432313 C67.4635142,49.5400699 68.1463985,49.9861914 68.3950508,49.2851432 C68.6449161,48.5828694 68.7698488,47.4369253 68.7698488,47.4369253 C68.7698488,47.4369253 67.7740264,47.3731936 67.7121666,47.6906263 C67.6503067,48.0105102 67.0280693,48.2017051 67.0280693,48.2017051 C67.0280693,48.2017051 66.5307646,48.3916745 66.7175571,48.6478267 C66.9031367,48.9027533 66.3439721,49.028991 66.3439721,49.028991 C66.3439721,49.028991 66.4410072,49.4407956 66.2821123,49.6038015 C65.7848075,50.1136547 64.5415457,49.6663076 64.3547532,49.4763382 L63.6087962,49.1576799 L62.8628391,48.6478267 L61.9919494,49.028991 L61.7445099,49.2851432 L60.8105474,49.2851432 L60.7499005,50.0486975 L62.4273942,50.2398924 L62.5523269,51.8172509 L61.8682297,51.5794828 L61.4327848,51.5794828 L61.2459923,51.1970929 L60.8736202,51.1321356 L60.8736202,52.5354576 L61.2459923,52.8541159 L61.5577174,53.1727741 L62.1799548,53.2365058 L62.3036745,54.0012856 L63.8574485,54.0650173 L64.044241,54.3836756 L64.9769906,54.4474072 L66.7806299,56.2956252 L66.6556973,56.8704357 L66.3439721,57.0616307 C66.4689048,57.5077522 65.5373681,57.2528256 65.5373681,57.2528256 L65.5373681,57.6352155 L65.9716,57.6989472 L66.4070449,57.9538738 L67.0280693,56.8704357 C67.7121666,56.4243141 68.0226788,57.0616307 68.0857516,57.4440206 C68.1476114,57.8264105 67.7740264,57.7626788 67.7740264,57.7626788 L67.7740264,58.6561476 L68.1476114,58.7823853 C68.7698488,59.5471652 67.8989591,59.9945123 67.8989591,59.9945123 L67.7121666,60.6318289 C67.525374,61.2054138 66.8412768,61.0779505 66.8412768,61.0779505 L66.5938374,61.4603404 L65.8466674,61.6515354 L67.3228133,61.8427303 C67.4635142,61.3328771 67.8346733,61.2054138 68.0214658,61.4603404 C68.2082583,61.715267 68.2082583,62.1613886 68.2082583,62.1613886 L68.5830563,62.2251202 L68.5199835,62.9261684 L68.8935685,63.0548574 L68.8935685,65.0942703 L69.3278004,65.6041235 C70.0749704,65.2866909 70.0749704,65.7965441 69.7013854,66.0502451 C69.3278004,66.3051717 69.5764528,67.4535671 69.5764528,67.4535671 L69.2659406,67.7709998 L69.2659406,68.2820786 L68.8923555,68.5370052 L68.8923555,69.2380534 C68.2713311,68.9193951 67.5241611,69.0456328 67.3373686,69.2380534 C66.779417,68.8544379 65.598015,68.9831268 65.598015,69.3017851 C65.9703871,69.8116383 65.1637831,69.9403272 65.1637831,69.9403272 L64.7271253,70.4501804 C65.0388505,71.087497 64.4166131,71.1512286 64.4166131,71.1512286 L64.4166131,72.3621301 L63.670656,73.0631783 L63.7337288,74.7214269 C63.7337288,75.1675485 64.6652655,75.2312801 64.850845,74.9763535 C65.0376375,74.7214269 65.7848075,75.4862067 65.7848075,75.4862067 L66.3427592,75.4862067 L66.4689048,74.339037 L66.0953198,74.1466164 L66.0953198,72.2983984 L66.7163442,71.5961246 C67.4635142,71.341198 67.2148618,73.2555988 67.2148618,73.4467938 C67.2767217,74.147842 67.586021,74.0841103 67.8977461,73.9554214 C68.5199835,73.7004948 68.0214658,74.6576952 67.525374,74.5939636 C67.0280693,74.5302319 67.3385815,75.2312801 67.3385815,75.2312801 L67.6503067,75.3587434 L67.0899292,75.804865 L66.5938374,76.3796755 L65.9703871,76.1872549 L65.225643,76.1247489 L64.9769906,75.6774017 L64.5403328,75.61367 L64.478473,76.5059132 L64.1679607,76.8883031 L63.4220037,77.6543086 C64.4166131,77.6543086 63.297071,78.3541312 63.0484187,78.3541312 C63.6075832,78.5453261 62.9865588,79.1201366 61.5577174,78.674015 L61.5577174,79.1201366 L61.0591998,79.1838683 L61.4958576,79.6937215 L61.9919494,79.7574532 L61.8051569,80.8408913 C61.8051569,81.6694028 59.7540781,81.0958179 59.5672856,80.9046229 L59.5054258,82.0530183 L59.1318408,82.1155244 L59.1937006,82.8815298 L59.1318408,83.9649679 L59.815938,83.8375046 L59.815938,84.2836262 L61.4946446,84.3485835 L63.9193084,81.7331344 L65.3493627,81.4157018 C65.4730824,80.7771596 66.0941068,81.5431651 66.0941068,81.5431651 C66.7163442,81.4782078 66.8412768,81.9243294 66.8412768,81.9243294 L67.6490938,82.0530183 C68.331978,82.2442133 67.919579,82.3116218 67.959606,82.5628715 C68.0214658,82.9452615 68.331978,82.8177982 68.331978,82.8177982 L68.4581236,81.9892867 L68.8304957,82.0530183 L68.4581236,81.6056711 L67.7728135,81.2870129 L67.0268564,80.9683546 C66.5295517,80.2673064 67.151789,80.3947697 67.6490938,80.459727 L68.4569107,80.459727 C68.4569107,80.459727 69.3908732,81.7331344 69.3908732,82.0530183 C69.3908732,82.3716766 69.8263181,82.4354082 69.8263181,82.4354082 L70.3842697,82.3716766 L70.5710622,82.8177982 L71.1302268,82.8177982 L71.3170193,83.1989625 L72.4365614,83.1989625 L72.4984212,82.6253776 L71.440739,82.4354082 L71.3788791,81.7968661 L70.634135,81.6056711 C70.3842697,80.5234586 70.8197146,80.2035747 71.1302268,80.7146536 L71.5038118,80.7771596 L71.3788791,79.8199592 L71.8131111,79.6924959 L71.6893913,78.3541312 L71.3170193,78.2266679 L71.3170193,77.7805463 L72.8707933,77.8455035 C72.7470736,77.0157664 72.9338661,76.6333765 72.9338661,76.6333765 L73.368098,76.6333765 L73.4299579,76.9532604 L75.3318452,77.1334249 L76.6769938,75.5756762 C76.6090692,75.4555665 76.8128429,75.3832556 76.6648644,75.2300545 C76.4780719,75.0388595 76.2282066,75.2300545 75.9164814,75.0388595 C75.6059692,74.8488902 75.9164814,73.7642265 75.8546216,73.5092998 C75.7927617,73.2543732 76.9123038,72.8707577 76.7267243,73.4455682 C76.5399317,74.0203787 76.7267243,74.2753053 76.7267243,74.2753053 C77.5345412,73.5092998 78.2186384,74.3378113 78.1567785,74.5302319 C78.0924928,74.7214269 78.5910105,74.9126218 78.9015227,74.7214269 C79.2120349,74.5302319 79.5856199,75.2950118 79.4606873,75.6761761 C79.3357546,76.0597916 78.2186384,75.99606 78.1567785,75.61367 C78.0924928,75.2300545 77.9057003,75.3587434 77.7831935,75.5499384 C77.6582609,75.7411333 77.0990963,75.8685967 76.7873712,75.6761761 C76.7255113,75.6381822 76.6951879,75.6063164 76.6769938,75.5756762 L75.3318452,77.1334249 L75.4191767,77.1432297 C76.1651338,77.5893513 75.7927617,78.1629362 75.5453223,78.2903995 C75.295457,78.4178628 74.8600122,78.4178628 74.8600122,78.4178628 L74.7362924,78.674015 L73.1194456,78.8002527 L72.994513,79.4387949 C72.1866961,79.310106 71.8761839,80.2035747 72.0629764,80.6496963 C72.2497689,81.0945923 72.0629764,81.4782078 72.0629764,81.4782078 L72.7470736,81.7968661 L73.6167504,81.5431651 C73.741683,80.9046229 74.2996346,80.7771596 74.7981523,80.3947697 C75.2942441,80.0123798 76.1044869,81.0945923 75.8546216,81.6056711 C75.6059692,82.1155244 75.6059692,82.3067193 75.6059692,82.3067193 L75.6678291,82.8815298 L75.0468047,83.1352308 L74.5494999,83.3913831 L74.4864271,83.7100413 L72.8077205,83.7100413 L72.4984212,84.0286996 L71.6893913,84.0936569 L71.4395261,84.4748212 L70.8815744,84.5397784 C70.8815744,84.5397784 69.9476119,84.9859 70.3211969,85.4957532 C70.6947819,86.0056065 68.7674229,85.9418748 68.331978,85.2408266 C68.2070454,85.8769176 67.5229482,85.3045583 67.5229482,85.3045583 L66.8400639,85.1121377 L66.778204,84.1573885 C66.6532714,83.5188464 65.4718694,83.5188464 65.5349422,83.9661935 C65.5968021,84.4123151 63.2958581,84.1573885 63.2958581,84.1573885 L62.549901,84.5226199 L61.8658038,84.9221684 L61.8039439,85.2408266 L60.6844018,85.3682899 L60.1870971,85.6232166 L60.0015176,85.2408266 L59.5042128,85.2408266 L59.0069081,85.9418748 C57.7017865,86.0068321 56.4585247,86.7716119 56.5822444,87.0902702 C56.7059641,87.4089285 56.0849397,87.7288124 56.0849397,87.7288124 L55.5257751,87.9175561 L55.153403,88.4923666 L54.406233,88.7472932 L54.2813004,90.0868836 L53.9101412,90.3418102 L53.9101412,90.9153951 L53.4734834,91.0428584 L53.4734834,91.3615166 L52.852459,91.4252483 L53.2248311,92.3824487 L53.7233487,92.6373753 C54.5930255,92.763613 54.2194405,93.8495024 54.2194405,93.8495024 L54.7167452,93.9120084 L54.9666105,94.6130566 L55.4627023,95.6327631 C55.6494948,96.3987685 56.2098723,96.2075736 56.4585247,96.1438419 C56.7059641,96.0813359 56.9546165,96.9086218 56.9546165,96.9086218 L59.44114,96.9723534 C59.44114,96.9723534 59.3174203,97.22728 59.7528652,97.3547433 C60.1870971,97.4822067 63.0472057,97.6108956 63.1721384,97.4197006 C63.0472057,96.8448901 64.7259124,96.7174268 65.4100096,97.22728 C66.0928939,97.7371333 67.0268564,97.4197006 67.0268564,97.4197006 L67.958393,98.5656448 L68.5818433,99.9689668 L69.6383126,100.286399 L70.3830568,100.47882 L70.6329221,101.562258 L71.1908737,101.62599 L71.3788791,102.328264 C72.0629764,102.838117 71.1908737,103.921555 71.1908737,103.921555 L71.1908737,105.323651 L71.6893913,105.579804 L71.6263186,106.089657 L72.4353484,106.918168 L73.368098,106.983126 L75.7309019,109.532392 L77.5951881,110.105977 L77.9057003,111.125683 L78.404218,111.061951 L78.77659,110.743293 L80.2685042,110.679561 L81.0144613,109.978513 L81.8222782,109.85105 L88.7238973,103.921555 L88.100447,103.539165 L88.100447,102.137069 C89.2199891,101.308557 89.281849,99.8415035 88.2253797,99.7140402 C87.4236274,99.6172171 87.7911477,98.7568397 88.5371048,98.6293764 L88.9713367,98.4394071 L88.9713367,97.8645966 L90.401391,96.5274574 L90.401391,95.5065254 L87.293843,92.8923019 C85.9256486,92.3824487 87.293843,89.3221037 88.2253797,89.3858354 C89.1581292,89.4483414 88.1635198,84.6684674 88.1635198,84.6684674 L87.6662151,84.4135407 L87.7911477,82.8827554 L87.1070505,82.8827554 L85.9875084,84.3498091 L85.6782092,85.3695155 C85.5532765,86.7091059 81.6985585,86.4529537 81.511766,86.2617587 C81.3249735,86.0705637 80.0198518,85.4969789 80.0198518,85.4969789 C80.0198518,85.4969789 79.0252424,84.6684674 78.8384499,84.923394 C78.6516574,85.1783206 77.7819806,84.6035101 77.7819806,84.7959307 C77.7819806,84.9871256 76.9741637,84.3498091 76.9741637,84.3498091 L75.7309019,83.9036875 L76.6636515,83.7112669 L76.476859,82.9464871 L78.0924928,83.7762242 C78.2792853,84.0299252 79.0871023,83.9674192 79.0871023,83.9674192 L79.3357546,84.2860774 C79.3357546,84.2860774 79.8342723,84.2211202 80.1459974,84.6047357 C80.4552967,84.9871256 82.0721435,84.6684674 82.0721435,84.6684674 L82.5063754,85.0508573 L83.1904726,85.3057839 L85.1178316,85.3695155 L85.1796915,84.1598397 L85.5532765,83.7762242 L85.4914167,83.0102187 L85.9256486,82.6290544 L85.9256486,81.9917379 L86.2992336,81.8642746 L86.3610934,80.4621782 L86.6716057,80.3984465 L86.6716057,77.3368759 L85.7388561,76.4446328 C85.6769962,76.763291 84.6823868,76.763291 84.6823868,76.763291 C84.6823868,76.763291 84.4337344,77.2094126 84.2481549,77.2094126 C84.0613624,77.2094126 84.4968072,77.7829975 84.3718746,78.1653874 C84.2481549,78.5477773 83.7496372,78.5477773 83.7496372,78.5477773 L82.8168876,78.8039296 L82.5682353,79.1225878 L81.5736258,79.1225878 L81.4499061,78.2940763 L82.5682353,77.9741925 L83.1892597,77.6567598 L83.5009848,77.0182176 C83.5628447,76.3809011 84.3088018,76.4446328 84.3088018,76.4446328 C84.3088018,76.4446328 85.7388561,75.2325057 85.8007159,74.6601464 C85.8637887,74.0865616 86.3610934,72.4920446 87.2307702,72.4920446 L88.847617,72.4920446 C89.4686415,72.2358924 89.2830619,71.4073809 89.2830619,71.4073809 L90.0908788,71.2811432 L90.2158115,71.7272647 C90.2158115,71.7272647 91.3353536,71.8547281 91.4590733,71.6635331 C91.5840059,71.4723381 91.8314453,71.0262166 92.1431705,71.2174115 C92.4536827,71.4086065 93.4482921,70.7712899 93.4482921,70.7712899 C93.510152,70.3239427 95.0651389,70.5163633 95.0651389,70.5163633 L95.2519314,69.9427784 C95.2519314,69.9427784 94.1954621,68.4757248 94.0086696,68.4757248 C93.8218771,68.4757248 92.8272677,67.582256 92.7023351,67.9021399 C91.7089386,67.6472133 91.7707984,66.2438913 91.7707984,66.2438913 L91.3972134,65.3516481 C91.3972134,64.8417949 90.4656768,63.7571312 90.2776713,63.8858201 C89.3449217,63.1847719 90.029019,62.3550348 90.2776713,62.2913031 C90.5263237,62.2287971 91.148561,61.3353283 91.148561,61.3353283 L91.4590733,60.4430851 L92.5155425,60.1244269 L92.6404752,59.2959154 L92.0825236,59.2321837 C92.0825236,59.2321837 92.7023351,58.0837883 93.0140602,58.0837883 C93.3257854,58.0837883 95.3768641,58.0837883 95.5624436,57.956325 C95.7492361,57.8288617 96.1216082,56.8091553 96.1216082,56.6179603 C96.1216082,56.4267653 96.6201259,56.3618081 96.8057054,56.2980764 C96.9924979,56.2355704 97.4267299,55.7244915 97.5516625,55.4695649 C97.6765952,55.2134127 97.2423632,53.6188957 96.9924979,53.8738223" id="Fill-89"></path>
                <path d="M62.5083645,76.6805224 C62.5919566,76.608398 62.6755486,76.8997056 62.8427328,76.8631751 C63.0077457,76.8266446 63.0924234,77.1198255 62.9263249,77.1198255 C62.7591407,77.1198255 62.7591407,77.3024782 62.7591407,77.3755393 C62.7591407,77.4486003 62.7591407,77.631253 62.6332098,77.7408446 C62.5083645,77.8504362 62.3824336,77.7773751 62.2152494,77.7043141 C62.0491509,77.631253 61.9655588,77.631253 61.7560358,77.631253 C61.548684,77.631253 61.7147826,77.9234973 61.7147826,77.9234973 C61.7147826,77.9234973 60.8376086,77.8869667 61.0047927,77.7773751 C61.1719769,77.6687202 61.339161,77.631253 61.2143157,77.5572552 C61.0883848,77.4841942 61.2143157,77.4120698 61.2143157,77.2659477 C61.2143157,77.1188888 61.6322761,77.1928866 61.5063452,77.0823583 C61.3814999,76.9727667 61.5085164,76.5493872 61.7147826,76.790114 L61.8407135,76.5334636 C61.7147826,76.4248087 61.7983746,76.3873415 61.548684,76.3161538 C61.2979078,76.242156 61.5063452,75.8037896 61.5063452,75.8037896 L61.548684,75.5115453 C61.6322761,75.14624 62.4660256,75.1097095 62.5083645,75.4384843 C62.5496177,75.7672591 62.5083645,75.9864423 62.5083645,75.9864423 L62.7591407,76.0595034 C62.7591407,76.0595034 62.7168019,76.2796232 62.5083645,76.2796232 C62.2988415,76.2796232 62.5083645,76.3882782 62.3824336,76.4978698 L62.5083645,76.6805224" id="Fill-90"></path>
                <path d="M58.9508197,77.3488978 C59.1335336,77.004876 59.5572409,75.5204581 60.0423778,75.9772021 C60.5243646,76.433946 60.8283627,75.9772021 60.8283627,75.9772021 C60.8283627,75.9772021 61.0709312,76.207038 60.949647,76.6637819 C60.8283627,77.1190619 60.7070785,77.5772698 60.4030803,77.6343628 C60.1006573,77.6914558 59.8580888,77.8627348 59.4973863,77.9198278 C59.1335336,77.9769208 58.9508197,77.3488978 58.9508197,77.3488978" id="Fill-91"></path>
            </g>
        </g>
    </g>
</svg>